<?xml version="1.0" encoding="utf-8"?>
<!-- Generator: Adobe Illustrator 19.0.0, SVG Export Plug-In . SVG Version: 6.00 Build 0)  -->
<svg version="1.1" id="Capa_1" xmlns="http://www.w3.org/2000/svg" xmlns:xlink="http://www.w3.org/1999/xlink" x="0px" y="0px"
	 viewBox="0 0 612 792" style="enable-background:new 0 0 612 792;" xml:space="preserve">
<style type="text/css">
	.st0{fill:#FFFFFF;stroke:#010202;stroke-width:8;stroke-miterlimit:10;}
	.st1{fill:#FFFFFF;}
	.st2{fill:#FFFFFF;stroke:#010202;stroke-width:5;stroke-miterlimit:10;}
	.st3{fill:none;stroke:#52B266;stroke-width:5;stroke-miterlimit:10;}
	.st4{fill:none;stroke:#9B2930;stroke-width:5;stroke-miterlimit:10;}
	.st5{fill:none;stroke:#EBE666;stroke-width:5;stroke-miterlimit:10;}
	.st6{fill:none;stroke:#5F3D74;stroke-width:5;stroke-miterlimit:10;}
	.st7{fill:#1CABE2;}
	.st8{fill:none;stroke:#1CABE2;stroke-width:5;stroke-miterlimit:10;}
	.st9{fill:#010202;}
	.st10{fill:#1D1C1C;}
	.st11{fill:#1C1B1B;}
	.st12{fill:#FCFBFB;}
	.st13{fill:#FCFAFA;}
	.st14{fill:#EFEDED;}
	.st15{fill:#FAF9F9;}
	.st16{fill:#EDEAEB;}
	.st17{fill:#F9F8F7;}
	.st18{fill:#F8F6F7;}
	.st19{fill:#F6F4F5;}
	.st20{fill:#F8F5F6;}
	.st21{fill:#F8F6F6;}
	.st22{fill:#6D686A;}
	.st23{fill:#EFEDEE;}
	.st24{fill:#F1EFF0;}
	.st25{fill:#ECE9EA;}
	.st26{fill:#E2E1E1;}
	.st27{fill:#E9E6E7;}
	.st28{fill:#F0EEEF;}
	.st29{fill:#DFDDDE;}
	.st30{fill:#F3F0F1;}
	.st31{fill:#F2EFEF;}
	.st32{fill:#B1AFAE;}
	.st33{fill:#E0DEDF;}
	.st34{fill:#DFDDDD;}
	.st35{fill:#F5F3F4;}
	.st36{fill:#DEDCDC;}
	.st37{fill:#464344;}
	.st38{fill:#B1AEAE;}
	.st39{fill:#F2F0F0;}
	.st40{fill:#E8E6E6;}
	.st41{fill:#E9E8E9;}
	.st42{fill:#D7D6D6;}
	.st43{fill:#E5E2E3;}
	.st44{fill:#626061;}
	.st45{fill:#6A6768;}
	.st46{fill:#EDEBEB;}
	.st47{fill:#686465;}
	.st48{fill:#DDDCDC;}
	.st49{fill:#383637;}
	.st50{fill:#DEDDDD;}
	.st51{fill:#E3E2E2;}
	.st52{fill:#EDEBEC;}
	.st53{fill:#CAC6C8;}
	.st54{fill:#E6E3E4;}
	.st55{fill:#B6B3B4;}
	.st56{fill:#E7E5E5;}
	.st57{fill:#ACA8AA;}
	.st58{fill:#E8E5E6;}
	.st59{fill:#555354;}
	.st60{fill:#E1DFE0;}
	.st61{fill:#D5D4D4;}
	.st62{fill:#E3E1E1;}
	.st63{fill:#B1ACAE;}
	.st64{fill:#E4E0E2;}
	.st65{fill:#DAD7D8;}
	.st66{fill:#595757;}
	.st67{fill:#E0DFDF;}
	.st68{fill:#D5D1D2;}
	.st69{fill:#E3E0E1;}
	.st70{fill:#6E6B6C;}
	.st71{fill:#828080;}
	.st72{fill:#B7B3B5;}
	.st73{fill:#DCDADA;}
	.st74{fill:#DCD9DA;}
	.st75{fill:#EBE9EA;}
	.st76{fill:#E5E3E3;}
	.st77{fill:#E7E4E5;}
	.st78{fill:#D8D3D5;}
	.st79{fill:#6C6A6B;}
	.st80{fill:#CECBCC;}
	.st81{fill:#949192;}
	.st82{fill:#7D7A7C;}
	.st83{fill:#D6D4D5;}
	.st84{fill:#B5B0B1;}
	.st85{fill:#595758;}
	.st86{fill:#5E595B;}
	.st87{fill:#D9D7D8;}
	.st88{fill:#D2CECF;}
	.st89{fill:#D5D2D3;}
	.st90{fill:#AFACAD;}
	.st91{fill:#777274;}
	.st92{fill:#D2D0D0;}
	.st93{fill:#7F7E7E;}
	.st94{fill:#CFCCCD;}
	.st95{fill:#686667;}
	.st96{fill:#A2A2A1;}
	.st97{fill:#696768;}
	.st98{fill:#433F40;}
	.st99{fill:#918D8F;}
	.st100{fill:#9C9899;}
	.st101{fill:#5B5759;}
	.st102{fill:#868283;}
	.st103{fill:#DAD8D8;}
	.st104{fill:#B0AFAF;}
	.st105{fill:#5D5A5B;}
	.st106{fill:#DDD9DA;}
	.st107{fill:#CDC9CA;}
	.st108{fill:#7D797A;}
	.st109{fill:#ACA7A8;}
	.st110{fill:#4E4C4D;}
	.st111{fill:#E0DEDE;}
	.st112{fill:#4C474A;}
	.st113{fill:#B1AEAF;}
	.st114{fill:#727071;}
	.st115{fill:#C2C0C1;}
	.st116{fill:#A29FA0;}
	.st117{fill:#B7B5B6;}
	.st118{fill:#706B6C;}
	.st119{fill:#B3B2B3;}
	.st120{fill:#DCD8DA;}
	.st121{fill:#BCB8B9;}
	.st122{fill:#5D5B5B;}
	.st123{fill:#837F80;}
	.st124{fill:#A19D9E;}
	.st125{fill:#BFBBBC;}
	.st126{fill:#BFBDBE;}
	.st127{fill:#575354;}
	.st128{fill:#262425;}
	.st129{fill:#686666;}
	.st130{fill:#E5E1E2;}
	.st131{fill:#E6E1E2;}
	.st132{fill:#888687;}
	.st133{fill:#5F5B5C;}
	.st134{fill:#636162;}
	.st135{fill:#868383;}
	.st136{fill:#8C898A;}
	.st137{fill:#E8E4E6;}
	.st138{fill:#9A9798;}
	.st139{fill:#BAB6B8;}
	.st140{fill:#787778;}
	.st141{fill:#D6D2D3;}
	.st142{fill:#585656;}
	.st143{fill:#565454;}
	.st144{fill:#BCBABB;}
	.st145{fill:#514E4F;}
	.st146{fill:#E3DFE1;}
	.st147{fill:#EFEBEC;}
	.st148{fill:#706E6E;}
	.st149{fill:#9E999C;}
	.st150{fill:#A59EA0;}
	.st151{fill:#676465;}
	.st152{fill:#DCDCDC;}
	.st153{fill:#D9D8D8;}
	.st154{fill:#ACACAC;}
	.st155{fill:#A5A4A3;}
	.st156{fill:#242021;}
	.st157{fill:#A5A3A3;}
	.st158{fill:#5A5959;}
	.st159{fill:#404040;}
	.st160{fill:#5E5C5D;}
	.st161{fill:#292727;}
	.st162{fill:#FDFCFC;}
	.st163{fill:#FBFAFB;}
	.st164{fill:#D0CECF;}
	.st165{fill:#DADADA;}
	.st166{fill:#9C9B9B;}
	.st167{fill:#9E9B9C;}
	.st168{fill:#CAC9C8;}
	.st169{fill:#8F8F8F;}
	.st170{fill:#726F70;}
	.st171{fill:#FDFDFD;}
	.st172{fill:#C7C6C7;}
	.st173{fill:#E8E5E5;}
	.st174{fill:#817E7F;}
	.st175{fill:#DCDBDB;}
	.st176{fill:#AFADAD;}
	.st177{fill:#A6A2A3;}
	.st178{fill:#302E2F;}
	.st179{fill:#1B191A;}
	.st180{fill:#918F90;}
	.st181{fill:none;stroke:#010202;stroke-width:5;stroke-linecap:round;stroke-miterlimit:10;}
	.st182{fill:none;stroke:#010202;stroke-width:5;stroke-linecap:round;stroke-linejoin:round;stroke-miterlimit:10;}
	.st183{fill:#010202;stroke:#010202;stroke-miterlimit:10;}
</style>
<circle id="XMLID_248_" class="st0" cx="302.7" cy="377.3" r="228.2"/>
<polygon id="XMLID_247_" class="st0" points="302.8,147.6 438.2,563.9 86.8,311.7 518.6,311.7 162.8,563.9 "/>
<path id="XMLID_246_" class="st1" d="M461.9,498.1H132.6c-6.6,0-12-5.4-12-12V458c0-6.6,5.4-12,12-12h329.2c6.6,0,12,5.4,12,12v28.1
	C473.9,492.7,468.5,498.1,461.9,498.1z"/>
<g id="XMLID_241_">
	<circle id="XMLID_245_" class="st2" cx="161.3" cy="563.9" r="31.2"/>
	<path id="XMLID_242_" class="st3" d="M140.1,550.1l21.8,37.5l20.7-37.5H140.1z M147.8,561.3h27.1H147.8z"/>
</g>
<g id="XMLID_238_">
	<circle id="XMLID_240_" class="st2" cx="442.7" cy="571.9" r="31.2"/>
	<polygon id="XMLID_239_" class="st4" points="421.4,587.2 441.7,546.6 463.9,587.2 	"/>
</g>
<g id="XMLID_233_">
	<circle id="XMLID_237_" class="st2" cx="74.5" cy="300.6" r="31.2"/>
	<path id="XMLID_234_" class="st5" d="M95.8,313.3L74,275.8l-20.7,37.5H95.8z M88.1,302.2H61H88.1z"/>
</g>
<g id="XMLID_230_">
	<circle id="XMLID_232_" class="st2" cx="530.9" cy="310.7" r="31.2"/>
	<polygon id="XMLID_231_" class="st6" points="552.2,295.4 531.9,336 509.6,295.4 	"/>
</g>
<g id="XMLID_221_">
	<circle id="XMLID_229_" class="st2" cx="302.7" cy="149.1" r="31.2"/>
	<g id="XMLID_222_">
		<circle id="XMLID_228_" class="st7" cx="302.7" cy="149.1" r="28.3"/>
		<circle id="XMLID_227_" class="st1" cx="302.7" cy="149.1" r="21.3"/>
		<line id="XMLID_226_" class="st8" x1="317.8" y1="134.1" x2="287.7" y2="164.1"/>
		<line id="XMLID_225_" class="st8" x1="287.7" y1="134.1" x2="317.8" y2="164.1"/>
		<line id="XMLID_224_" class="st8" x1="302.7" y1="127.8" x2="302.7" y2="170.4"/>
		<line id="XMLID_223_" class="st8" x1="281.5" y1="149.1" x2="324" y2="149.1"/>
	</g>
</g>
<g id="XMLID_17_">
	<circle id="XMLID_220_" class="st9" cx="300.1" cy="384" r="52.5"/>
	<g id="XMLID_18_">
		<path id="XMLID_219_" class="st9" d="M345,380.3c0.2,0.2,0.3,0.5,0.2,0.7c-0.3,2.3,0.6,4.4,0.8,6.6c0,0.3,0.1,0.5,0.4,0.6
			c1.1,0.4,1.1,1.1,0.7,2c-0.2,0.5-0.5,1,0.3,1.4c0.3,0.2,0.3,0.6,0.1,0.9c-0.9,2.6-2.2,5-4.2,6.9c-1.1,1.1-1.7,2.4-2.5,3.6
			c-0.3,0.2-0.7,0.3-1,0.3c-0.9-0.4-2-0.3-2.6-1.2c0.8-0.7,1.9-1,2.8-1.5c3-1.6,4.8-4.3,6.1-7.3c0.2-0.4,0.1-0.4-0.3-0.4
			c-0.4,0-0.4-0.5-0.3-0.8c0.1-0.6,0.3-1.1,0.5-1.6c0.3-0.7,0.3-1.2-0.3-1.7c-0.4-0.3-0.6-0.7-0.5-1.2c-0.1,0.7,0.1,1.3,0.5,1.9
			c0.4,0.4,0.2,0.9,0.1,1.4c-0.3,0.9-0.5,1.9-0.6,2.8c-0.2,1.2-1.2,2.1-2.3,2.7c-0.1,0-0.2,0-0.3-0.1c-0.1-0.3-0.1-0.5,0.1-0.7
			c0.9-1.3,1.4-2.8,1.8-4.3c-0.8,3-2.4,5.6-4.6,7.8c-0.2,0.2-0.4,0.5-0.6,0.8c-0.4,0.5-1.2,0.7-1.5,1.3c-0.7,0.6-1.4,1-2.3,0.6
			c-1.6-0.5-3.3-0.9-4.9-1.1c-1-0.3-2-0.3-3-0.5c0.9,0.2,1.9,0.3,2.8,0.4c1.7,0.3,3.4,0.7,5,1.1c0.3,0.1,0.6,0.2,0.3,0.6
			c-0.2,0.3-0.6,0.3-0.7,0.5c0.5-0.3,1-0.9,1.8-0.9c1.1,0.5,2.2,0.8,3.3,1.2c0.1,0.2,0.1,0.5,0,0.7c-0.8,0.7-1.6,1.4-2.4,2.1
			c2.8,1.6,5.4,3.4,7.9,5.3c0.4,0.3,1,0.7,0.6,1.3c-0.5,0.6-0.9,0.1-1.4-0.2c-2.5-1.8-4.9-3.5-7.6-5c-0.9-0.5-1.8-0.2-2.1,0.8
			c-0.1,0.4-0.2,0.7-0.6,0.7c-1.2,0.2-2.1,1.2-3.3,1.5c-0.4,0.1-0.6,0.5-0.7,0.8c-1.1,3.5-3.3,6-6.4,7.7c-0.3,0.2-0.6,0.4-0.8,0.7
			c-1.6,2.5-3.8,4.2-6.5,5.3c-1.2,0.5-2.5,0.9-3.6,1.6c-0.2,0.2-0.6,0.3-0.7,0.1c-0.8-1.1-1.7-0.3-2.5,0c-0.7,0.2-1.4,0.5-2.1,0.9
			c-0.7,0.3-1.1,0.9-2,0.1c-0.5-0.4-1.1,0.5-1.5,1c-0.4,0.5-0.2,0.8,0.3,1c0.5,0.2,0.7,0.6,0.5,1.1c-0.2,0.5-0.7,0.6-1.1,0.5
			c-3.3-1.3-6.8-1.9-10-3.3c-0.5-0.2-1-0.6-1.4-0.9c-0.6-0.4-0.9-1.3-1.9-0.5c-0.4,0.3-0.8-0.3-1.1-0.6c-1.1-1.4-2.4-2.6-3.8-3.7
			c-0.4-0.3-0.7-0.5-1.2-0.2c-0.4,0.3-0.8,0-1.1-0.3c-0.5-0.4-1.1-0.8-1.7-1.3c0,0.6,0,1.3-0.7,1.4c-0.8,0.1-0.9-0.6-1-1.1
			c-0.1-0.4-0.3-0.7-0.5-1c-2.1-2.6-4-5.3-6.6-7.4c0.2-0.5,0.6-0.5,1-0.7c2.7,0.3,5.3,1.3,7.4,2.1c-1.3-0.7-3.1-1.4-5-1.8
			c-0.3-0.1-0.5-0.1-0.7-0.4c0-0.1,0-0.2,0-0.3c0-0.1,0.1-0.1,0.2-0.2c0,0,0,0,0,0c-3.1-0.4-5.9-1.6-8.7-2.9
			c-1.1-0.5-1.2-0.7-0.7-1.8c0.2-0.4,0-0.6-0.2-0.8c-0.3-0.3-0.7-0.5-0.9-0.8c-0.3-0.3-0.6-0.7-0.1-1.1c1.8-0.9,3.6-1.6,5.5-2.3
			c2-0.7,3.9-1.4,6-1.8c0.8,0.2,1.3,0.8,1.9,1.4c0.7,0.7,1.4,1.5,2.2,2c-0.7-0.5-1.3-1.3-1.6-2.1c-0.5-1.3-1.4-1.9-2.7-2
			c-0.4-0.1-0.9-0.3-1.3-0.6c0.1,0.4,0.5,0.3,0.7,0.4c0.3,0.2,0.7,0.4,0.5,0.9c-2,0.5-3.9,1.1-5.8,1.8c-1.9,0.7-3.7,1.5-5.5,2.3
			c-0.5,0.1-0.8-0.1-0.8-0.5c0.1-0.9-0.5-1.5-1.1-2.1c-0.2-0.2-0.3-0.3-0.3-0.6c0.1-0.4,0.4-0.5,0.7-0.6c1.7-0.6,3.5-1.1,5.2-1.5
			c1.1-0.2,2.1-0.4,2.8-0.4c-0.8,0-1.9,0.2-3,0.4c-2,0.5-3.9,1-5.8,1.8c-0.4,0.1-0.7-0.1-0.9-0.3c-1-0.9-2-1.8-2.8-2.9
			c-0.5-0.7-1.1-1.3-0.8-2.3c0.1-0.3-0.2-0.5-0.4-0.8c-0.1-0.1-0.1-0.2-0.1-0.3c0.4-0.6,0.4-0.6,1.1,0c-1.6-1.5-2.3-3.4-2.9-5.4
			c-0.2-0.8-0.1-1.3,0.8-1.5c0.6-0.1,0.7-0.5,0.3-1c-0.2-0.3-0.5-0.7-0.7-1c-0.6-0.8-1.2-1.6-0.5-2.8c0.3-0.5,0-1-0.2-1.5
			c-0.7-2.1-0.2-3.9,1.4-5.3c0.5-0.4,0.8-0.3,1.1,0.2c0.3,0.7,0.5,1.4,0.8,2.1c-0.5-1.4-0.5-3-0.7-4.4c-0.2-1.4-0.1-2.7,0.9-3.8
			c0.5-0.6,0.7-1.1,0.5-1.9c-0.1-0.5,0-1,0.4-1.3c0.3-0.2,0.7,0.1,1.2-0.1c-0.6-1.8,0-3.5,0.3-5.2c0.1-0.4,0.1-0.8-0.1-1.2
			c-1.1-1.8-1-3.7-0.7-5.6c0.2-2,0.1-4-0.2-6c-0.2-1.6,0-3,0.7-4.4c0.3-0.6,0.5-1.1,0.6-1.8c0.2-4.6,1.2-9.1,2.4-13.6
			c0.5-1.7,1-3.3,1.9-4.9c0.7-1.3,1.6-2.4,2.9-3.1c1.4-0.7,2.4-0.6,3.6,0.5c1.7,1.4,2.7,3.4,3.8,5.2c1.3,2.3,2.3,4.8,3.3,7.2
			c0.1,0.2,0.2,0.5,0.1,0.8c-0.3,0.3-0.3,0.5-0.2,0.9c0.8,2.4,1.4,4.8,2.2,7.2c0.2,0.7,0.5,1.4,0.2,2.2c0.5-1.2,0.3-2.4-0.2-3.6
			c-1-2-1.8-4.2-2.2-6.4c0.5-0.4,0.6,0.1,0.7,0.4c1.2,2.4,3.2,4.1,5.3,5.7c0.4,0.2,0.9,0.3,1.3,0.4c0.3,0.1,0.7,0,0.6,0.5
			c-0.1,0.3-0.4,0.2-0.7,0.3c-0.1,0-0.3-0.1-0.6,0c2,0,3.6-0.3,5.1-1.2c3-1.8,6.2-3.1,9.6-4c0.7-0.2,1.3-0.3,1.3,0.8
			c0,0.7,0.5,0.8,1.1,0.7c0.8-0.2,1.4,0.1,2.2,0.3c2.4,0.8,4.9,1.4,7.5,1.1c2-0.3,3.5-1.3,4.6-3c1.4-2.3,2.1-4.9,3.2-7.3
			c1.1-2.4,2.2-4.8,3.8-6.9c2.1-2.8,4.5-3.1,7.1,0.2c1.1,1.3,1.7,2.9,2.2,4.5c1.6,5,2.8,10,3.1,15.3c0,0.5,0.2,1,0.5,1.4
			c1.1,1.8,1.2,3.7,0.7,5.6c-0.3,1.2-0.5,2.3-0.3,3.5c0.2,1.3,0,2.6-0.5,3.8c-0.8,2.2-0.7,4.4,0.2,6.6c0.3,0.7,0.5,1.3,1.4,0.6
			c0.7-0.5,0.8,0,0.9,0.6c0.4,2.2,0.2,4.4-0.3,6.5c-0.1,0.2-0.2,0.3-0.2,0.5c0,0.1,0,0.1,0,0.2c0.1-0.1,0-0.2,0.1-0.3
			c0-0.1,0.1-0.2,0.1-0.2c0.1,0,0.2,0,0.3,0c0.4-0.1,0.2-0.4,0.3-0.7c0.1-0.3,0.1-0.6,0.2-0.9c0.2-0.4-0.1-0.8-0.2-1.2
			c0-0.4-0.1-0.9,0.4-1c0.6-0.1,0.9,0.3,1.1,0.8c0.4,1.1,0.6,2.3,0.6,3.4c0,1,0,2,0,3.1c0,1,0.4,1.8,0.6,2.7
			c0.3,1.8,1.2,3.3,1.5,5.1c0-0.2,0-0.5,0.1-0.7C344.4,380.8,344.5,380.4,345,380.3z"/>
		<path id="XMLID_218_" class="st10" d="M275.6,411.5c0,0.1,0,0.2,0,0.2c-1,0.5-2,0-2.9,0c0.3,0.1,0.8,0.1,1.1,0.4
			c-0.3,0.2-0.7,0.3-1,0.5c-0.8-0.1-1.7,0-1.9-1.2c0-0.3-0.5-0.3-0.8-0.4c-1.5-0.5-2.9-1.1-4.2-2c-0.7-0.5-1.2-1.1-1.2-1.9
			c-0.1-1.3-0.9-1.7-2-1.1c-3.6,1.9-7.1,4.1-10.4,6.4c-0.2,0.2-0.4,0.3-0.7,0.5c-0.4,0.2-0.7,0.3-1-0.1c-0.2-0.3-0.1-0.7,0.2-0.9
			c0.4-0.3,0.9-0.7,1.4-1c3.1-2.2,6.2-4.3,9.6-6c0.7-0.3,0.8-0.6,0.3-1.2c-0.1-0.1-0.1-0.2-0.2-0.3c-0.3-0.4,0.1-1.2-0.6-1.3
			c-0.6-0.1-1.1,0.4-1.7,0.6c-3,1.4-5.9,3.1-8.7,4.9c-0.3,0.2-0.5,0.4-0.9,0.4c-0.2-0.1-0.4-0.2-0.5-0.4c-0.1-0.5,0.2-0.7,0.5-0.9
			c2.9-2,5.9-3.8,9.1-5.3c0.3-0.1,0.7-0.3,1-0.5c-0.8-0.9-1.5-1.6-2.2-2.5c-0.8-1.1-1.6-2.2-1.2-3.8c0.1-0.7-0.5-1.6-0.8-2.3
			c-0.7-1.4-1.2-2.8-1.4-4.3c0-0.3-0.2-0.6-0.1-0.8c0.7-1.3-0.3-2.1-0.7-3c-0.5-1-0.8-1.9,0.5-2.5c0.4-0.2,0.2-0.5,0.1-0.8
			c-0.6-2.4-0.1-4.4,1.9-6c0.4-0.3,0.4-0.7,0.3-1.1c-0.3-1.9,0-3.6,1.5-5c0.3-0.3,0.4-0.6,0.5-1c0.2-1,0.1-2,1-2.8
			c0.2-0.2,0-0.8,0.1-1.2c0.7-2.3,0.4-4.5-0.1-6.8c-0.5-2.2,0.3-4.5-0.1-6.8c-0.2-1.3-0.4-2.7-0.2-4.1c0-0.6,0-1.2,0.3-1.7
			c1.4-2.1,1.1-4.5,1.5-6.8c0.7-3.5,1.3-7.1,2.1-10.6c0.4-2.1,1.3-4,2.5-5.8c2.7-3.9,6.5-4,9.3-0.2c2.7,3.7,4.9,7.6,6.3,11.9
			c0.4,1,0.8,2.1,1.3,3c1.7,3.3,5.1,4.4,8.4,2.7c2.9-1.5,5.7-3,8.9-3.7c1.8-0.4,3.6-0.7,5.5-0.6c0.8,0,1.4,0.3,1.2,1.2
			c-0.1,0.4,0.1,0.4,0.4,0.5c0.7,0.2,1.6,0.2,1.7,1.2c0,0.1,0.2,0.2,0.4,0.2c1.7,0.4,3.4,0.6,5.1,0c1-0.4,1.6-1.1,2-2
			c0.5-1.1,0.9-2.2,1.2-3.3c1.3-3.9,3.4-7.5,5.7-10.9c0.1-0.1,0.1-0.2,0.2-0.3c2.8-3.8,6.4-3.8,9.2-0.1c1.5,2,2.4,4.2,2.9,6.6
			c0.8,3.6,1.5,7.3,2.2,10.9c0.1,0.7,0.2,1.4,0.2,2c0,0.9,0.3,1.6,0.7,2.3c1.3,2.1,1.3,4.5,0.7,6.8c-0.2,0.6-0.4,1.2-0.2,1.8
			c0.5,1.7,0.3,3.3-0.4,4.9c-0.8,1.8-0.8,3.7,0.1,5.5c1.2-1,1.7-0.8,2.2,0.6c0.2,0.5,0.3,0.9,0.4,1.4c0.2,0.9,0.3,1.7,1.1,2.4
			c0.8,0.7,0.8,1.8,0.9,2.9c0.2,2,0.3,4,0.6,5.9c0.3,1.6,0.9,3.2,0.9,4.9c0,0.2,0.3,0.4,0.4,0.6c-0.2,0.2-0.3,0.5-0.5,0.7
			c-0.9-0.7-1.3-1.6-1.1-2.7c0.1-0.8-0.1-1.4-0.5-2c-0.4-0.7-0.5-1.4-0.5-2.2c0-2.2-0.3-4.4-0.8-6.6c0-0.1-0.1-0.3-0.2-0.4
			c-1.3-0.9-1.2-2.3-1.5-3.6c-0.2-0.6-0.2-1.3-1.1-0.5c-0.5,0.5-0.9,0.1-1.1-0.4c-0.9-2-1.2-4.1-0.5-6.2c0.6-1.7,0.9-3.3,0.6-5.1
			c-0.1-0.7,0.1-1.3,0.2-2c0.4-2.2,0.5-4.4-0.8-6.4c-0.3-0.5-0.5-1-0.5-1.6c-0.4-5.3-1.6-10.4-3.1-15.5c-0.6-2-1.6-3.9-3.2-5.4
			c-1.7-1.5-3.4-1.6-5.2-0.2c-0.7,0.5-1.1,1.2-1.6,1.9c-2.5,3.7-4.5,7.5-5.8,11.8c-1.4,4.4-3.4,5.6-8.4,4.9c-1-0.1-1.9-0.3-2.9-0.6
			c-0.3-0.1-0.6-0.2-0.6-0.5c0-0.4,0.4-0.3,0.9-0.4c-1-0.1-1.9-0.1-2.8,0c-0.3,0-0.7,0.1-0.8-0.2c-0.2-0.4,0.1-0.7,0.4-1
			c0.3-0.3,0.7-0.4,1.1-0.5c-4.2,0.3-8.2,1.3-11.8,3.5c-2,1.2-4.1,1.9-6.5,1.4c-2.3-0.6-3.8-2-4.8-4.1c-1.3-2.7-2.1-5.7-3.6-8.3
			c-1.1-2.1-2.3-4.1-3.7-6c-2.5-3.4-5.4-3.3-7.8,0.1c-1.2,1.7-1.9,3.7-2.4,5.7c-0.9,3.7-1.6,7.4-2.2,11.2c-0.1,0.7-0.2,1.4-0.1,2.1
			c0,0.7-0.1,1.5-0.5,2.1c-1.1,1.6-1.2,3.3-1,5.1c0.2,2.2,0.5,4.4,0.2,6.7c-0.2,1.5-0.1,2.9,0.7,4.3c0.4,0.7,0.3,1.5,0,2.2
			c-0.4,1-0.7,2.1-0.6,3.2c0,0.6-0.3,1.1-0.8,1.4c-0.2,1.7-0.9,3.3-1.9,4.7c-0.5,0.7-0.5,1.7-0.3,2.6c0.2,1-0.1,1.7-0.9,2.3
			c-1.5,1.2-1.8,2.7-1.5,4.5c0.1,0.9,0.7,1.9-0.6,2.6c-0.3,0.1-0.1,0.6,0,0.8c0.3,0.6,0.7,1.1,1,1.6c0.4,0.6,1,1.1,0,1.8
			c-0.3,0.2-0.1,0.6-0.1,0.9c0.1,1.1,0.5,2.2,1,3.2c0.5,1,1,2,1.2,3.2l0,0c-0.3,2.2,1,3.5,2.3,4.9c0.5,0.5,1.2,0.9,1.3,1.7
			c0,0.3-0.2,0.4-0.5,0.5c-3.1,1.2-6,2.9-8.8,4.6c-0.5,0.3-1,0.6-1.5,0.9c-0.1,0.1,0.1,0.1,0,0c0.5-0.4,1-0.7,1.6-1
			c2.6-1.6,5.2-3.2,8.1-4.3c0.4-0.2,0.9-0.4,1.4-0.4c0.6,0.3,1.1,0.8,1.1,1.5c0,0.4,0.3,0.7,0.5,1.1c0.2,0.3,0.6,0.7,0.1,1.1
			c-3.3,1.8-6.6,3.7-9.7,5.9c-0.6,0.4-1.2,0.9-2.1,1.4c0.9-0.5,1.5-1,2.2-1.4c3.1-2.2,6.4-4.2,9.9-5.9c1.1-0.1,1.6,1,2.4,1.5
			c0.1,0.1,0.1,0.4,0,0.5c-0.6,0.9,0.1,1.3,0.7,1.7c2.2,1.3,4.7,2,7.2,2.6C274.6,411.1,275.2,411.1,275.6,411.5z"/>
		<path id="XMLID_217_" class="st11" d="M339.9,403.2c0.3-0.2,0.5-0.4,0.9-0.2c5.8,2.1,11.1,5,16.1,8.5c0.2,0.1,0.4,0.3,0.6,0.4
			c0.3,0.3,0.5,0.6,0.3,1c-0.3,0.4-0.6,0.3-1,0.1c-1.4-0.9-2.8-1.8-4.2-2.6c-4-2.4-8.2-4.4-12.6-6.2c0-0.1-0.2-0.3,0-0.4
			c1.5,0,2.8,0.8,4.1,1.4c3.3,1.4,6.4,3.1,9.5,5c0.7,0.4,1.4,0.9,2.1,1.3c-0.6-0.4-1.3-0.9-2-1.3c-4.1-2.5-8.4-4.8-13-6.5
			C340.4,403.6,340.1,403.5,339.9,403.2z"/>
		<path id="XMLID_216_" class="st12" d="M286.4,340.1c2.3,0.3,4.4-0.3,6.4-1.5c3.3-1.9,6.8-3,10.6-3.4c0.8-0.1,1.6,0,2.4,0.1
			c-0.9,0.4-2.2,0.3-2.5,1.6c1.5-0.2,3-0.3,4.4,0.5c-0.5,0.1-1,0.1-1.5,0.2c2.9,0.7,5.7,1.9,8.7,0.4c1.1-0.5,1.7-1.6,2.1-2.7
			c1-2.7,1.9-5.4,3.2-8c1.1-2.1,2.3-4.1,3.7-6c2.4-3.3,5.5-3.3,7.9,0c1.6,2.1,2.5,4.5,3,7c0.7,3.6,1.5,7.2,2.1,10.8
			c0.3,1.7,0.5,3.3,1.3,5c0.8,1.7,0.8,3.6,0.2,5.4c-0.2,0.7-0.3,1.4-0.2,2.1c0.4,1.4,0.2,2.8-0.3,4.1c-1,3-0.9,4.3,0.4,7.3
			c0.6-0.2,0.9-0.8,1.4-1.2c0.7,1,0.7,2.2,0.9,3.4c0.1,0.5,0.1,0.9,0.7,1.1c0.7,0.3,0.8,1.1,0.9,1.7c0.2,2.2,0.8,4.5,0.6,6.8
			c0,0.4,0,0.8,0.3,1.1c0.8,0.9,0.8,1.9,0.6,3c-0.2,0.9,0.6,1.4,0.8,2.2c-0.1,0.7-0.2,1.4-0.8,2.1c0.1-0.6,0.1-0.9,0.1-1.3
			c0.1-0.7,0.1-1.3-0.6-1.7c-0.2-0.1-0.4-0.3-0.3-0.4c0.3-2-1.3-3.5-1.2-5.4c0.1-2.1,0.2-4.2-0.4-6.3c0,0,0-0.1,0-0.1
			c-0.1-0.4-0.1-1.1-0.8-1c-0.7,0.1-0.2,0.7-0.3,1.1c0.2,0.9,0,1.8-0.6,2.5c0,0.1,0,0.1-0.1,0.2c-0.2,0.1-0.3,0-0.3-0.2
			c0.4-2.4,0.8-4.8,0.2-7.2c0,0-0.1,0-0.1,0c-1.4,1.1-1.4,1.1-2.1-0.6c-0.9-2.1-1.1-4.3-0.3-6.5c0.6-1.6,1-3.2,0.4-5
			c-0.2-0.7,0-1.4,0.3-2c0.7-2.2,0.6-4.2-0.6-6.2c-0.3-0.5-0.4-1-0.4-1.5c-0.4-5.8-1.7-11.4-3.7-16.8c-0.6-1.5-1.4-2.8-2.7-3.9
			c-1.7-1.4-3.3-1.3-4.8,0.4c-2.5,2.9-4,6.3-5.4,9.8c-0.7,1.7-1.3,3.4-2.2,5c-1.3,2.2-3.2,3.2-5.7,3.4c-2.4,0.2-4.7-0.3-6.9-1.2
			c-0.8-0.3-1.5-0.4-2.3-0.3c-1.1,0.2-1.4-0.4-0.9-1.8c-2.3,0.5-4.5,1.3-6.6,2.2c-1.4,0.6-2.8,1.3-4.1,2.1c-1.8,1.1-3.7,1.4-6,0.8
			c0.8-0.1,1.3-0.1,2-0.2c-0.7-0.3-1.5-0.1-2-0.6C285.5,340.1,286,340.3,286.4,340.1z"/>
		<path id="XMLID_215_" class="st13" d="M286.4,340.1c-0.3,0.4-0.8,0.2-1.2,0.5c-2.2-1.7-4.4-3.5-5.5-6.2c0-0.1-0.2-0.1-0.2-0.2l0,0
			c-1.6-4.6-3.5-9.1-6.7-12.8c-1.4-1.6-2.9-1.6-4.6-0.3c-1.9,1.5-2.8,3.7-3.4,5.9c-1.5,4.9-2.6,9.9-2.8,15.1c0,0.3,0,0.6-0.2,0.9
			c-1.3,1.9-1.3,4-0.9,6.1c0.4,2.1,0.1,4.2-0.1,6.3c-0.2,1.6,0.3,3,1.1,4.4c0.3,0.6,0,1.3-0.2,1.8c-0.5,1.5-0.7,2.9-0.1,4.4
			c0.1,0.2,0.2,0.4,0,0.5c-0.2,0.2-0.4,0.1-0.6-0.1c-0.3-0.2-0.6-0.5-1-0.4c-0.2,0.1-0.3,0-0.2-0.2c1-0.6,0.4-1.7,0.7-2.5
			c0.9-2.3,0.1-4.5-0.1-6.7c-0.2-3.5-0.3-7.1-0.4-10.6c0-1,0.3-1.9,0.9-2.8c0.5-0.7,0.6-1.4,0.7-2.2c0.4-5.2,1.5-10.2,2.8-15.3
			c0.4-1.7,1.3-3.3,2.4-4.7c2.3-2.8,5.2-2.9,7.4,0c2.8,3.7,5.1,7.7,6.6,12.1c0.4,1.2,0.9,2.4,1.6,3.5
			C283.2,338.5,284.6,339.5,286.4,340.1z"/>
		<path id="XMLID_214_" class="st13" d="M302.5,396.5c0.9-0.5,1.8-0.5,2.9-0.6c-0.3,0.7-0.9,0.9-1.4,1c-1.4,0.2-2.2,1.1-2.8,2.4
			c-0.4,1-1.1,1.8-1,3.1c0.2,2.1,1.1,3.6,3,4.5c0.9,0.5,1.8,1,2.7,1.4c2.3,1,4.7,1.4,7.3,0.1c-1.2,1.5-4.2,2.1-6.3,1.5
			c-0.9-0.3-1.8-0.8-2.6-1.4c-0.9-0.7-1.9-1.2-3-1.5c-1.8-0.5-3.4,0-4.8,1.1c-0.2,0.1-0.3,0.2-0.4,0.4c-3.6,3.1-5.9,3.1-10,0
			c1.1,0.4,1.9,0.8,2.8,1c1.8,0.6,3.6,0.4,5.2-0.7c1.1-0.8,2.3-1.6,3.5-2.3c1-0.6,1.6-1.5,1.8-2.6c0.1-0.6,0.2-1.3,0.3-1.9
			c0.4-2.4-1.3-4.2-3.7-4.3c-1.4,0-2.5-0.8-3.5-1.9c1,0.6,2.1,0.6,3.3,0.6c1,0,1.8,0.3,2.4,1.1c0.6,0.1,1.1,0.4,1.3,1.1
			c0.3-0.5,0.1-1.2,0.5-1.6c0-0.3,0.1-0.6,0.1-0.9c0-0.2,0.2-0.3,0.4-0.2c0.3,0.5,0.2,1,0.1,1.5c0.2,0.6,0.4,1.1,0.2,1.7
			c0.4-0.8,0.8-1.5,1.5-2.1C302.1,396.7,302.3,396.5,302.5,396.5z"/>
		<path id="XMLID_213_" class="st14" d="M273.4,372.4c2.3-0.1,4.6-0.6,6.9-0.3c3.5,0.4,6.2,1.9,7.8,5.2c0.8,1.6,1.8,3.2,2.2,5.1
			c0.1,0.3,0.1,0.7,0.1,1c0.1,1.5-0.9,2.2-2.3,1.4c-1-0.7-2-0.7-3.1-0.3c-1.9,0.6-3.7,0.4-5.6,0c-0.6,0.1-1-0.1-1.4-0.6
			c-1.9-0.9-3.4-2.3-4.6-4.1c-0.6-0.8-1.2-1.5-2-2.1c-0.2-0.2-0.5-0.4-0.3-0.8c0.2-0.4,0.5-0.4,0.9-0.3c0.2,0.1,0.4,0.3,0.5-0.1
			c0.1-0.4-0.1-0.4-0.4-0.4c-0.5,0-1.1,0-1.6,0c-0.6,0-1.3-0.1-1.9-0.5c-0.5-0.3-1.3-0.6-1.1-1.2c0.3-0.8,1.1-0.3,1.6-0.1
			c1.7,0.7,3.2,0.3,5-0.4c-1.5-0.2-2.7-0.3-3.8-0.9c-0.4-0.2-1-0.3-0.8-0.9c0.3-0.7,0.8-0.1,1.2,0c0.3,0.1,0.6,0.2,0.9,0.3
			C272.2,372.1,272.8,371.9,273.4,372.4z"/>
		<path id="XMLID_212_" class="st15" d="M259.8,366c0.1,0.1,0.1,0.1,0.2,0.2c0,0.6-0.1,1.2,0,1.8c0,0.5-0.1,1-0.5,1.4
			c-1.2,1.1-1.1,2.4-1,3.8c0.2,1.7,0.4,3.3,0.7,5.2c-0.7-1.1-1-2.1-1.4-3.1c-2.2,2-2.5,3-1.6,5.8c0.2,0.5,0.4,1.1,0.1,1.4
			c-0.9,0.9-0.2,1.5,0.3,2.2c0.3,0.5,0.7,0.9,1,1.4c0.6,0.9,0.5,1.2-0.5,1.3c-0.9,0.1-0.8,0.4-0.7,1.1c0.4,2,1.3,3.8,2.6,5.3
			c0.2,0.3,0.7,0.5,0.6,1.1c-0.4-0.3-0.7-0.6-1-0.9c-0.6-0.7-0.3,0.2-0.6,0.3c-1.1-2.2-2.3-4.3-2.6-6.8c-0.1-0.8,0.2-1,1.2-0.8
			c-1-1.2-1.7-2.2-2.2-3.4c-0.3-0.5-0.2-1.1,0.5-1c0.7,0.1,0.6-0.3,0.6-0.7c-0.1-0.4-0.2-0.8-0.3-1.2c-0.4-1.9,0-3.6,1.7-4.8
			c0.7-0.5,0.9-1,0.7-1.8c-0.3-1.7-0.1-3.2,1.3-4.4c0.5-0.5,0.7-1.2,0.7-1.8C259.5,366.9,259.4,366.4,259.8,366z"/>
		<path id="XMLID_211_" class="st16" d="M325.6,375.1c0.4,0.3,0.6,0.6,0.2,1c-1.4,1.2-2,2.9-3.2,4.3c-2.6,3.1-5.8,4.6-9.8,3.9
			c-1.2-0.2-2.2-0.2-3.3,0.7c-1,0.8-2,0.2-2.2-1c-0.9-4.3,1.6-7.1,4.3-9.7c2.7-2.6,6.1-3,9.7-1.9c0.9,0.3,1.7,0.6,2.6,0.8
			c1.4,0.4,2.8,0.2,4.2-0.5c0.4-0.2,0.9-0.5,1.2,0c0.3,0.5-0.2,0.8-0.5,1c-0.8,0.7-1.8,0.9-2.8,1.1c-0.3,0.1-0.6,0.1-0.9,0.2
			C325.3,375,325.5,374.9,325.6,375.1z"/>
		<path id="XMLID_210_" class="st17" d="M336.5,402.4c-0.8,0.3-1.4,1-2.4,1.1c0.4-0.7,1.2-0.7,1.4-1.4c-0.1,0-0.1-0.1-0.1-0.1
			c0-0.1,0-0.1,0.1-0.1c0.9,0.2,1.5-0.3,2.3-0.7c0.4-0.5,1-0.6,1.4-1c0.3-0.2,0.8-0.4,0.7-0.9c0.3-0.7,1-1,1.3-1.6
			c0.5-0.4,0.9-1,1.5-1.2c2.4-1.4,2.1-4.1,2.9-6.2c0.1-0.1,0.1-0.3-0.1-0.4c-1.2-0.8-0.7-1.8-0.4-2.8c0.1,0.8,0.2,1.6,1.2,2
			c0.5,0.2,0.2,0.6,0.1,1c-0.3,1-0.8,1.9-0.8,3c0.6,0,0.7-0.6,1.2-0.8c-1.7,4.8-4.4,8.5-9.5,9.9C337,402.5,336.8,402.5,336.5,402.4z
			"/>
		<path id="XMLID_209_" class="st18" d="M261.4,400.8c-1.1-1.2-2.3-2.4-3.2-3.8c-0.5-0.9-1-1.8-0.2-2.8c0.7,0.3,1,0.7,0.7,1
			c-0.5,0.5-0.1,0.9,0.1,1.2c1.1,1.5,2.5,2.9,4,4.1c0.2,0.1,0.1,0.4,0.3,0.5c0.4,0.4,0.8,0.7,1.1,1.1c0.3,0.3,0.6,0.6,0.3,1.1
			c-0.3,0.5,0.1,0.7,0.6,0.7c0.2-0.1,0.3,0,0.2,0.2c-0.2,0.9,0.7,1.1,1.1,1.6c0.4,0.5,1.3,0.8,0,1.3c-0.4,0.2-0.2,0.5,0,0.7
			c0.4,0.3,0.9,0.6,1.4,0.8c2.6,1.1,5.2,2.1,7.9,2.7c0.1,0,0.4,0.1,0.3,0.2c0,0.2-0.2,0.1-0.4,0.2c-2.7-0.4-5.4-1-7.9-2.3
			c-0.6-0.3-1.2-0.6-1.7-1.1c-0.3-0.3-0.3-0.7-0.5-1c-0.3-0.5,0.9-0.5,0.3-0.8c-0.8-0.4-1.2-1.3-2.2-1.4c-0.2,0.1-0.3,0-0.3-0.2
			c0.1-0.1,0.2-0.1,0.2-0.1c-0.9-1-0.7-2.4-1.8-3.3C261.6,401.1,261.4,401,261.4,400.8z"/>
		<path id="XMLID_208_" class="st18" d="M318.8,341.7c-1.1,1.3-2.4,2.2-4.1,2.7c0.6-0.5,1.1-1.1,1.7-1.6c0-0.2-0.2-0.4-0.1-0.6
			c1.7-1.3,2.8-3.1,3.8-5c1.4-2.9,3.2-5.6,5.3-8.1c-1.4,2.6-2.8,5.1-3.9,7.9c-0.1,0.3-0.1,0.6-0.4,0.7c-0.6,1.2-1.2,2.5-2.1,3.6
			C318.9,341.4,319,341.6,318.8,341.7z"/>
		<path id="XMLID_207_" class="st19" d="M328.5,413.6c-0.4,1.3-1.1,2.4-2.2,3.2c-1.2,0.9-2.4,2.2-4.2,2c-0.2,0-0.5,0.2-0.7,0.4
			c-1.7,1-3.2,2.2-5.2,2.7c0-0.1,0-0.2,0-0.2c3-1.5,5.4-3.8,8.1-5.7c0.4-0.3,1-0.8,1.2,0.3C326.7,415.5,327.6,414.5,328.5,413.6z"/>
		<path id="XMLID_206_" class="st20" d="M297.8,428.7c-0.1,0.1-0.2,0.2-0.2,0.2c-3-0.7-5.5-2.1-7-4.9c1.1,1,2.3,1.9,3.7,2.7
			c-0.2-0.9,0.2-1,0.8-0.7c0.1,0.1,0.3,0.1,0.4,0.2c2.9,1.5,5.5,3.6,8.7,4.5c-0.7,0.1-1.4-0.1-2-0.4c-0.7-0.3-1.4-0.6-2.1-0.9
			c-0.7-0.3-1.3-0.6-2-0.8c-0.9-0.2-1.5-0.8-2.2-1.2C296.6,427.9,297.2,428.3,297.8,428.7z"/>
		<path id="XMLID_205_" class="st21" d="M302.3,419.2c0.5,0.5,0.9,1,1.4,1.5c0,0.1-0.1,0.1-0.1,0.2c-0.8-0.3-1.5-0.7-2.3-1
			c0.2,0.7,0.4,1.4,0.6,2.1c-0.4-0.2-0.6-0.4-0.8-0.6c-0.8-1-1.8-1.6-3.1-1.9c-1.5-0.3-2.7-1.2-3.9-2.2c1.7,1,3.7,0.7,5.5,1.6
			c0.6,0.4,1.6,0.1,2.5,0.1C302.1,418.9,302.2,419,302.3,419.2z"/>
		<path id="XMLID_204_" class="st22" d="M296.1,368.1c0.3,0.2,0.6,0.5,0.9,0.7c-0.7,0.2-1,0.8-1.1,1.4c-0.1,0.5-0.2,0.9-0.7,1.1
			c-0.1,0-0.2,0-0.3-0.1c-1.1-1-2.5-1.6-2.9-3.2c0.1-0.3,0.1-0.5,0-0.8c-0.2-0.5-0.1-0.7,0.4-0.8c0.5-0.1,1,0,1,0.4
			c-0.1,0.7,0.4,0.6,0.6,0.5C295,367.1,295.3,368.2,296.1,368.1z"/>
		<path id="XMLID_203_" class="st23" d="M318.4,413.3c0-0.1,0-0.2,0-0.3c0.7,0.2,1.3-0.3,2-0.4c2.3-0.3,4.6,0,6.7-1.1
			c0.6-0.3,1.3-0.4,2.2-0.1c-1.8,0.3-3,1.6-4.7,1.5c0.1,0.3,0.5,0.2,0.5,0.6c-1.6-0.3-3.3-0.3-4.9-0.3c0,0.4,0.6,0.2,0.7,0.6
			C320,414.4,319.2,413.5,318.4,413.3L318.4,413.3z"/>
		<path id="XMLID_202_" class="st20" d="M279.5,334.2c0.6,2.2,1.5,4.4,2.5,6.5c0.4,0.8,0.7,1.7,0.5,2.6c-0.1,0.7-0.4,1.2-1.2,1.5
			c0.7-1.2,0.2-2.3-0.1-3.4c-0.7-2.5-1.4-5-2.2-7.5C279.2,334.1,279.4,334.2,279.5,334.2C279.5,334.2,279.5,334.2,279.5,334.2z"/>
		<path id="XMLID_201_" class="st24" d="M323.4,397.8c1,0.2,2-0.1,3.2-0.1c-0.7,0.7-1.4,0.9-2.2,1c-1.1,0.1-1.9,0.6-2.2,1.8
			c-0.2,0.8-0.6,1.6-1.5,2.1c0.9-1.1,0.7-2.4,0.7-3.7c0-0.5,0.1-1,0.2-1.5C322.3,397,322.8,397.6,323.4,397.8z"/>
		<path id="XMLID_200_" class="st16" d="M335.3,341.6c0.5,3.7,0.1,7.4-1.7,10.7c-0.6,1-1.5,1.6-2.9,1.9
			C335,350.9,335.1,346.2,335.3,341.6z"/>
		<path id="XMLID_199_" class="st25" d="M285.7,358.8c-0.2,4.1,0.3,8.1,0.2,12.2c-1.2-4.6-0.6-9.2-0.4-13.8
			C286,357.6,285.7,358.2,285.7,358.8z"/>
		<path id="XMLID_198_" class="st26" d="M336.5,402.4c0.3-0.1,0.5-0.2,0.8-0.3c0.8,0.7,1.8,0.7,2.7,1.1c4.8,1.8,9.5,4.1,13.8,6.9
			c0,0.2,0,0.3-0.2,0.2c-4-2.4-8.2-4.5-12.5-6.3c-0.3-0.1-0.7-0.2-1.1-0.3C338.8,403.3,337.6,402.8,336.5,402.4z"/>
		<path id="XMLID_197_" class="st27" d="M311.4,370.3c1.7-4.9,2-10.1,2.4-15.2C313.7,360.2,313.7,365.4,311.4,370.3z"/>
		<path id="XMLID_196_" class="st28" d="M273.8,412.1c-0.7,0-1.3-0.3-1.9-0.7c1.2,0.1,2.5,0.2,3.7,0.3c2.3,0.6,4.7,1.2,6.6,2.8
			C279.5,413.6,276.7,412.7,273.8,412.1z"/>
		<path id="XMLID_195_" class="st19" d="M276.3,399.9c-0.1-0.4-0.4-0.5-0.6-0.7c0.1-0.6,0.4-0.3,0.7-0.2c1.3,0.1,2.3,0.6,2.9,2
			c0.4,1.2,1.3,2.1,2.2,3c-2-0.8-3.1-2.6-4.7-3.8C276.7,399.9,276.4,400,276.3,399.9z"/>
		<path id="XMLID_194_" class="st29" d="M300.4,395.8c-0.1,0.1-0.2,0.1-0.4,0.2c-0.2-1.6-0.2-1.6-1.9-1.7c-1.1-0.1-2.2,0-3.3,0.3
			c-0.3,0.1-0.7,0.3-0.9-0.2c-0.1-0.4,0.3-0.6,0.6-0.8c0.7-0.5,1.5-0.5,2.3-0.3c1.7,0.4,3.4,0.7,5.2,0.5
			C301.1,394.2,299.9,394.2,300.4,395.8z"/>
		<path id="XMLID_193_" class="st30" d="M282.5,420.1c0.3,0.2,0.6,0.4,0.8,0.6c0.1,0.1,0.4,0.3,0.4,0.1c0.2-1.5,0.9-0.4,1.2-0.2
			c2.4,1.3,4.3,3,5.5,5.5c-1.8-1.9-3.6-3.8-6.1-5.2c0.1,0.8,0,1.3-0.8,0.6c-0.4-0.4-0.9-0.7-1.3-1.1
			C282.2,420.1,282.2,420,282.5,420.1z"/>
		<path id="XMLID_192_" class="st31" d="M330.2,331.7c-1.4,2.1-2.3,4.4-3.4,6.6c-0.8,1.6-1.7,3.2-3,4.5c-0.2,0-0.3,0-0.2-0.2
			c1.5-2.2,2.7-4.6,3.9-7c0.8-1.5,1.5-3,2.7-4.3C330.3,331.5,330.3,331.6,330.2,331.7z"/>
		<path id="XMLID_191_" class="st32" d="M302.6,366.4c0.5-0.8,0.7-1.6,1-2.5c0.9,0.1,1.1,0.9,1.5,1.5c0.1,0.3,0.2,0.8,0,0.8
			c-0.6,0.4-0.1,0.3,0.1,0.4c-0.1,1.2-0.6,2.2-1.3,3c-0.3-0.2-0.4-0.6-0.4-0.9c0-0.6,0-1.1,0.7-1.4c-0.5,0.2-1,0.1-1.3-0.4
			C302.6,366.8,302.6,366.6,302.6,366.4z"/>
		<path id="XMLID_190_" class="st33" d="M322,346.7c1.3-0.5,2.4-1.4,3.4-2.3c0.2-0.1,0.3,0,0.2,0.2c-0.9,1-1.9,2-2.8,2.9
			c-0.9,0.9-2.1,0.8-3.3,0.7c-0.2,0-0.5-0.2-0.4-0.4c0-0.1,0.4-0.2,0.6-0.3C320.3,346.9,321.2,346.9,322,346.7z"/>
		<path id="XMLID_189_" class="st34" d="M305.2,366.7c-0.3,0.2-0.5,0.1-0.7-0.1c-0.1-0.1-0.3-0.2-0.2-0.4c0.1-0.1,0.2-0.4,0.4-0.4
			c0.3,0,0,0.4,0.4,0.5c-0.2-0.4,0.4-1.2-0.7-0.9c-0.3,0.1-0.3-0.1,0.3-0.9c-0.5,0.1-1.2,0.3-1.1-0.5c0.1-1.2-0.3-2.3-0.7-3.5
			C304.8,362.1,305.6,364.2,305.2,366.7z"/>
		<path id="XMLID_188_" class="st35" d="M318.4,336.7c-0.7,2.6-3.3,4-7.3,3.8c0.2-0.5,0.7-0.6,1.2-0.7
			C314.7,339.5,316.9,338.9,318.4,336.7z"/>
		<path id="XMLID_187_" class="st36" d="M328.9,403.2c5.2,1.6,9.9,4.1,14.2,7.3c0,0.2,0,0.3-0.2,0.2c-4.4-3.2-9.2-5.6-14.3-7.3
			C328.6,403.2,328.6,403.1,328.9,403.2z"/>
		<path id="XMLID_186_" class="st37" d="M322,346.7c-0.7,0.4-1.5,0.7-2.3,0.9c-0.8-0.1-1.1-1.4-2.2-0.8c-0.2,0.1-0.2-0.4-0.1-0.5
			c0.3-0.3,0.7-0.4,1.1-0.1c0.3,0.3,0.6,0.5,1,0.5c0.2,0,0.4-0.1,0.5-0.4c0.2-1,1-1.3,1.9-1.5c1,0.5,1,0.7,0.2,1.3
			C321.8,346.3,321.2,346.5,322,346.7z"/>
		<path id="XMLID_185_" class="st38" d="M296.1,368.1c0,0,0,0.1,0,0.1c-1-0.3-2-0.7-3.2-0.9c0.2-0.4,0.7,0,0.6-0.3
			c-0.1-0.3-0.5-0.7-1-0.4c-0.1,0.1-0.7-0.1-0.1,0.3c0.3,0.3-0.1,0.7-0.4,1c-0.3-0.5-0.3-1.1-0.3-1.7c0-0.6,0.1-1.1,0.2-1.7
			c0.1-0.2,0.1-0.4,0.4-0.5c0.3,0,0.4,0.2,0.5,0.4c0.1,0.5,0.2,1,0.8,1.2C294.3,366.7,295,367.6,296.1,368.1z"/>
		<path id="XMLID_184_" class="st39" d="M300.8,339.9c0.2,0.3-0.4,0.6-0.1,0.9c0.5,0,0.8-0.4,1.3-0.7c0.2-0.1,0.4-0.1,0.5,0
			c0.2,0.2,0.1,0.3,0,0.5c-0.8,1.2-1.6,2.3-2.4,3.4c0,0.1-0.2,0-0.4,0c0.5-0.9,0.9-1.7,1.4-2.5c-0.1-0.1-0.2-0.1-0.2-0.1
			c-0.4,0-1,0.5-1.3,0.1c-0.4-0.5,0.4-0.8,0.6-1.2C300.3,340.3,300.5,340,300.8,339.9z"/>
		<path id="XMLID_183_" class="st40" d="M293.6,365.8c-0.9,0.2-1.1-0.2-1-1c0-0.2,0-0.4-0.2-0.4c-0.2,0-0.2,0.2-0.3,0.4
			c-0.2,0.5,0.1,1.1-0.4,1.6c-0.3-2,0.4-3.7,1.8-5.2C292.9,362.7,293,364.2,293.6,365.8z"/>
		<path id="XMLID_182_" class="st41" d="M341.3,397.9c-0.4,0.5-1.1,0.9-1.3,1.5c-0.1,0.5-0.4,0.6-0.8,0.6c-0.1-0.3,0-0.7,0.2-0.9
			c2.4-2.1,3.7-4.9,4.9-7.7c0-0.1,0.1-0.2,0.2-0.4c-0.3,2.1-1,3.8-2.1,5.4C342.2,397.1,341.4,397.3,341.3,397.9z"/>
		<path id="XMLID_181_" class="st42" d="M302.3,419.2c-0.1-0.1-0.3-0.1-0.4-0.2c-0.1-0.1-0.2-0.3-0.3-0.5c1.3,0.2,2.6,0.7,3.7-0.4
			c0.5,0.3,1.1-0.4,1.6,0c0.1,0.4,0.6,0,0.8,0.3C305.9,419.6,304.2,419.9,302.3,419.2z"/>
		<path id="XMLID_180_" class="st43" d="M316.6,363.3c1-1.7,1.1-3.6,1.5-5.4c0.2-0.9,0.3-1.9,0.4-2.9c0.1,0,0.2,0,0.2,0
			c0.1,2.7-0.2,5.4-1.4,7.8C317.1,363.1,316.9,363.4,316.6,363.3L316.6,363.3z"/>
		<path id="XMLID_179_" class="st44" d="M332.1,351c-0.3,0-0.6,0.1-0.9,0.1c-0.1,0-0.1,0.1-0.2,0.2c0.2,0.3,0.4,0.5,0.6,0.8
			c-0.7,0.3-0.8-0.3-1-0.6c-0.7,0.1-0.1,1.2-1.2,1.1c-0.8-0.1-0.8-0.9-1.4-1C329.4,351.8,330.5,350.2,332.1,351z"/>
		<path id="XMLID_178_" class="st45" d="M297.1,388.2c-0.3,0.3-0.8-0.1-1.1,0.5c0.7-0.2,0.7,0.4,1,0.7c0.3,0.4,0.2,0.6-0.2,0.6
			c-0.3,0-0.5-0.1-0.6,0.2c-0.1,0.3-0.2,0.4-0.5,0.2c-0.5-0.4,0.2-0.3,0.2-0.5c0.1-0.2,0.3-0.4,0.1-0.6c-0.6,0.8-0.1-1.1-0.8-0.3
			c-0.2,0.3-0.4-0.1-0.4-0.3c-0.1-0.5,1.4-1.7,1.5-1.4C296.6,387.8,297,387.9,297.1,388.2z"/>
		<path id="XMLID_177_" class="st46" d="M318.3,413.3c0.6,0.9,0.6,0.9,2.3,1.4c-0.9,1-1.9,0.8-4.7-1.2c0.5-0.2,0.8,0.1,1.2,0.2
			C317.7,414,318.2,414.2,318.3,413.3L318.3,413.3z"/>
		<path id="XMLID_176_" class="st47" d="M316.5,363.7c1,0.1,0.2,1.4,1.1,1.6c0,0.1,0,0.2-0.1,0.2c-0.5,0.2-1.1,0.2-1.2,0.9
			c-0.4-0.3-0.7,0.1-1,0.4c0-0.7,0.1-1.1,0.1-1.6C315.3,364.3,316.4,364.4,316.5,363.7L316.5,363.7z"/>
		<path id="XMLID_175_" class="st48" d="M334.1,408.3c-2.3,1.6-4.5,2.5-7.1,2C329.4,410.1,331.5,408.8,334.1,408.3z"/>
		<path id="XMLID_174_" class="st49" d="M295.7,370.1c0.1-0.8,0.1-1.6,1.3-1.3c0.2-0.1,0.3-0.1,0.5-0.2c0.2,0.2,0.4,0.4,0.6,0.5
			c0.5,0.2,0.4,0.7,0.1,0.9c-0.4,0.2-0.2,1.3-1.1,0.8C296.7,370.4,295.9,370.8,295.7,370.1z"/>
		<path id="XMLID_173_" class="st50" d="M299.5,408.2c-0.3,0-0.5,0.1-0.8,0.1c-0.4,0-0.9,0.6-1.1,0.1c-0.1-0.3,0.7-0.6,1.1-0.8
			c1.5-0.8,2.9-0.1,4.1,0.8c-0.6,0.1-1.3-0.3-1.9-0.1C300.4,408.6,300,408.1,299.5,408.2z"/>
		<path id="XMLID_172_" class="st51" d="M302.3,342.3c1.5-1.6,3.5-2.1,5.3-1.3C305.8,341.1,304.2,341.9,302.3,342.3z"/>
		<path id="XMLID_171_" class="st36" d="M269.6,349.7c1.2,0.4,2.4,0.8,3.6,1.1c0.8,0.2,0.7-0.1,0.6-0.7c0.2,0.5,0.5,0.9,1.2,1.3
			C272.7,351.8,271.1,350.9,269.6,349.7z"/>
		<path id="XMLID_170_" class="st52" d="M273.3,343.3c0.6,0.7,1.3,1.3,2.1,1.9c0.3,0.2,0.6,0.3,0.9,0.1c0.4,0.4,0.9,0.6,1.3,1
			c0.6,0.1,0.9,0.5,1.3,0.9c-2.5-0.4-4.4-1.7-5.8-3.6C273,343.3,273.2,343.3,273.3,343.3z"/>
		<path id="XMLID_169_" class="st53" d="M279.1,339.8c-0.6-1.3-1.1-2.7-1.7-4c1.6,2.1,2.8,4.4,3,7.1c-0.5-0.4-0.4-0.9-0.7-1.3
			C279.3,341.1,279.1,340.5,279.1,339.8z"/>
		<path id="XMLID_168_" class="st34" d="M263.4,383c4.6-1.1,5-1.1,6.3-0.1C267.5,382.4,265.5,382.9,263.4,383z"/>
		<path id="XMLID_167_" class="st54" d="M310.7,366.8c-0.1,2.1-0.3,4.2-1.3,6c-0.1,0-0.2-0.1-0.3-0.1
			C309.6,370.8,310.1,368.8,310.7,366.8z"/>
		<path id="XMLID_166_" class="st55" d="M329,380.5c0-0.6-0.4-0.2-0.7-0.3c-0.6-0.1-1.2,0.4-2.1,0.3c1.3-0.9,2.4-1.1,3.7-0.8
			c0.3,0.1,0.5-0.3,0.6-0.1c0.1,0.2,0,0.5-0.4,0.5c0,0.4,0.4,0.1,0.5,0.2C330.2,380.9,329.6,380.7,329,380.5z"/>
		<path id="XMLID_165_" class="st25" d="M294.4,341.4c1.4-0.7,2.2-2.5,4.3-2.4C297.3,340,296.1,341.2,294.4,341.4z"/>
		<path id="XMLID_164_" class="st56" d="M276.5,344.5c-0.4-0.4-0.8-0.9-1.1-1.3c-0.1-0.3,0-0.3,0.3-0.3c0.5,0.2,0.6,1,1.3,0.9
			c0.4,0.2,0.6,0.5,0.7,0.9c0.7,0.4,1.5,0.8,2.3,1.2c-0.8,0.4-1.4-0.3-2.1-0.3C277.2,345.6,276.9,344.9,276.5,344.5z"/>
		<path id="XMLID_163_" class="st29" d="M311.5,425.5c-1.6,0.7-3.3,1.3-4.8,2.1C308,426.2,309.6,425.4,311.5,425.5z"/>
		<path id="XMLID_162_" class="st57" d="M321.9,344.8c-0.6,0.5-1.5,0.6-1.6,1.6c0,0.4-0.4,0.5-0.7,0.2c0-0.2,0.3-0.3-0.1-0.5
			c-0.3-0.2-0.2-0.7,0.1-0.7c0.5,0,0.8,0.1,0.8-0.7c0-0.4,0.3,0.4,0.6,0c0.3-0.3,0.8-0.5,1.2-0.7c0.1,0,0.2,0,0.2,0.2
			C322.1,344.5,322,344.7,321.9,344.8z"/>
		<path id="XMLID_161_" class="st58" d="M334.5,383.7c1.2,0.1,2.2,0.5,3.1,1.4c-1.6-0.4-3.2-0.8-4.9-1.1c0.2-0.3,0.4-0.2,0.6-0.2
			C333.7,383.4,334.1,383.4,334.5,383.7z"/>
		<path id="XMLID_160_" class="st59" d="M279.1,339.8c0.3,0.6,0.6,1.2,0.6,1.9c-1,0.1-1.3-1.1-2.5-1c0.7-0.4,0.6-1,1-1.3
			C278.8,339.2,278.4,340.3,279.1,339.8z"/>
		<path id="XMLID_159_" class="st60" d="M315.5,424.7c1.6-0.7,3.1-1.7,4.5-2.6C319,423.7,317.3,424.4,315.5,424.7z"/>
		<path id="XMLID_158_" class="st61" d="M327.5,371.8c-1.6,1.2-3.3,1.2-5,0.4C324.2,372.3,325.9,372.2,327.5,371.8z"/>
		<path id="XMLID_157_" class="st62" d="M282.1,415.4c-1.9,0.4-3.6-0.2-5-1.3C278.7,414.7,280.4,415,282.1,415.4z"/>
		<path id="XMLID_156_" class="st63" d="M294.9,371.2c0.1,0,0.2,0,0.3,0c0.9-0.2,1.7,0.5,2.7,0.4c0.4,0,0.9,0.1,1.2-0.3
			c0.1-0.1,0.2-0.1,0.3-0.1c0.4,0.3,1,0.1,1.4,0.5c0,0.1,0,0.2-0.1,0.3C298.8,372.8,296.3,372.4,294.9,371.2z"/>
		<path id="XMLID_155_" class="st64" d="M331.8,372.4c-0.5,1.6-1.7,2.2-4.1,2.2C329.3,374,330.6,373.5,331.8,372.4z"/>
		<path id="XMLID_154_" class="st65" d="M262.9,401c-0.2-0.1-0.2-0.3-0.3-0.5c1.9-0.8,3.9-1.4,5.9-1.8c0.2-0.1,0.3,0,0.2,0.2
			c-1.8,0.5-3.6,1.1-5.3,1.6C263.2,400.6,263,400.6,262.9,401z"/>
		<path id="XMLID_153_" class="st66" d="M284,367.1c1.3,0.6-0.7,0.8,0,1.3c-0.7,0.1-0.7-1.3-1.5-0.5c-0.1-0.2-0.4-0.3-0.4-0.5
			c0-0.4,0.4-0.6,0.7-0.8c0.3-0.2,0.6-0.1,0.8,0.3C283.8,366.7,283.9,367,284,367.1z"/>
		<path id="XMLID_152_" class="st67" d="M327.6,351.3c0,0.9,0.8,1.3,1.2,2c-0.6,0.1-1-0.3-1.3-0.7c-0.4-0.5-0.6-1-1.3-0.8
			c-0.3,0.1-0.3-0.2,0.2-0.7l0,0c0.3-0.2,0.5-0.5,0.7-0.8c0.2-0.2,0.4-0.5,0.6,0C327.7,350.6,327.1,350.9,327.6,351.3z"/>
		<path id="XMLID_151_" class="st68" d="M270.6,352.3c-0.1,0.5,0.8,0.6,0.4,1c-0.5,0.5-0.5,1.5-1.4,1.5c-0.9,0-1.2,0.5-1.4,1.3
			c0,0.2-0.2,0.3-0.3,0.5c-0.1,0-0.2,0-0.2-0.1c0.1-0.4,0.3-0.8,0.4-1.3c0.1-0.3,0.1-0.5,0.5-0.6c1.3-0.2,1.6-0.6,1.5-2.1
			c0-0.1,0.1-0.3,0.1-0.4C270.6,351.9,270.6,352.1,270.6,352.3z"/>
		<path id="XMLID_150_" class="st69" d="M306.8,418.1c-0.5,0-1.1,0.5-1.6,0c1.4-0.4,2.6-1.4,4.2-1c-0.3,0.5-0.8,0.4-1.2,0.6
			C307.8,417.8,307.3,417.9,306.8,418.1z"/>
		<path id="XMLID_149_" class="st70" d="M299.9,396.9c0.1,0.7,0,1.4-0.3,2c-0.4-0.4-0.8-0.8-1.2-1.3c-0.1-0.1-0.2-0.2-0.3-0.3
			c0.3-0.1,0.2-0.3,0.3-0.5c0.5,0,0.9-0.6,1.4,0C299.8,396.9,299.9,396.9,299.9,396.9z"/>
		<path id="XMLID_148_" class="st71" d="M323.4,397.8c-0.7,0.2-1.3,0-1.8-0.4c-0.4-0.2-0.7-0.4-0.1-0.7
			C322.4,396,323.3,396.6,323.4,397.8z"/>
		<path id="XMLID_147_" class="st72" d="M276.3,399.9c0.2,0,0.4,0,0.5,0.2c-2.1,0.3-4.1,1.1-6.1,1.8c-0.1-0.1-0.2-0.1-0.3-0.2
			C272.3,400.8,274.3,400.2,276.3,399.9z"/>
		<path id="XMLID_146_" class="st56" d="M329,380.5c0.6,0,1.1,0.2,1.6-0.2c1.2-0.2,2.3,0.2,3.4,0.8c-0.3,0.3-0.6,0.1-0.9,0.2
			c-0.4,0.1-0.6-0.2-0.9-0.2c-1.1-0.2-2.2-0.2-3.3-0.2c0,0-0.1-0.1-0.1-0.1C328.9,380.6,329,380.6,329,380.5z"/>
		<path id="XMLID_145_" class="st73" d="M268.5,380.8c0.4-0.1,0.8,0.2,1.3,0.2c0.4-0.1,0.4,0.1,0.4,0.3c0,0.3-0.1,0.4-0.4,0.4
			c-0.6-0.1-1.2-0.3-1.9-0.3c-0.2,0-0.3-0.2-0.5,0.1c0,0.1,0.2,0.4-0.2,0.3c0.2-0.3-0.3-0.4-0.3-0.6c-0.1-0.3,0.3-0.1,0.4-0.2
			C267.6,380.7,268.1,380.8,268.5,380.8z"/>
		<path id="XMLID_144_" class="st74" d="M270.4,401.6c0.1,0.1,0.2,0.2,0.3,0.2c-1.8,0.8-3.6,1.5-5.4,2.3c-0.1-0.1-0.2-0.1-0.2-0.2
			C266.7,403,268.5,402.3,270.4,401.6z"/>
		<path id="XMLID_143_" class="st75" d="M328.7,396.3c-1.1,1.1-2.4,1.1-4,0.4C326.2,396.6,327.4,396.4,328.7,396.3z"/>
		<path id="XMLID_142_" class="st76" d="M279.5,384.7c-0.9,0.5-1.6,0-2.3-0.4c-0.7-0.3-1.3-0.8-1.9-1.8c1,0.7,1.7,1.2,2.6,1.5
			C278.5,384.1,279.1,384.2,279.5,384.7z"/>
		<path id="XMLID_141_" class="st77" d="M339.9,376.7c0.6-1.5,0.9-3.1,1.3-4.7C341.5,373.7,340.9,375.3,339.9,376.7z"/>
		<path id="XMLID_140_" class="st16" d="M327.4,348.6c-1.3,1.6-2.5,2-4.3,1.4C324.7,350.1,325.9,349.2,327.4,348.6z"/>
		<path id="XMLID_139_" class="st78" d="M282.8,371.4c-1.4-1.1-2.9-1.7-4.6-2C279.9,368.9,281.9,369.8,282.8,371.4z"/>
		<path id="XMLID_138_" class="st79" d="M297.3,391.3c0.3-0.1,0.5-0.3,0.8-0.4c0.3-0.1,0.5,0,0.7,0.2c0.2,0.2,0.1,0.4-0.3,0.4
			c-0.1,0-0.1,0.3,0.1,0.3c0.4,0.1,0.5,0.3,0.5,0.7c-0.4-0.6-0.3,0.7-0.7,0.2c-0.3-0.3-0.8-0.2-0.9-0.8
			C297.5,391.5,297.4,391.4,297.3,391.3z"/>
		<path id="XMLID_137_" class="st73" d="M278.8,348.7c-1.6,0.6-2.9,0.1-4-0.7C276,348.5,277.3,348.2,278.8,348.7z"/>
		<path id="XMLID_136_" class="st32" d="M302.2,396.9c-0.5,0.8-0.9,1.8-1.7,2.5c0-0.8,0-1.5,0-2.1c0.1,0.2,0.3,0.4,0.5,0.7
			c0.2-0.6,0.4-1,1-1.1C302.1,396.8,302.1,396.8,302.2,396.9z"/>
		<path id="XMLID_135_" class="st80" d="M273.4,372.4c-0.6,0-1.3,0.2-1.8-0.2c0.3-0.5-0.2-0.4-0.4-0.5c-0.4-0.3-0.8-0.5-1.1-0.9
			C271.1,371.5,272.6,371.2,273.4,372.4z"/>
		<path id="XMLID_134_" class="st81" d="M303.6,368.7c0.2,0.3,0.3,0.6,0.3,1c-0.3,0.5-0.6,0.8-1.1,1.1c0,0-0.1,0-0.1,0
			c-0.9-0.4-0.5-1-0.1-1.5c0-0.1,0.1-0.2,0.2-0.2C303,369,303.1,368.5,303.6,368.7z"/>
		<path id="XMLID_133_" class="st82" d="M276.5,344.5c0.5,0.4,0.9,0.7,1.4,1.1c0.1,0.3-0.2,0.5-0.2,0.7c-0.5-0.2-1.3,0-1.3-1
			C276.2,345,276.6,344.8,276.5,344.5z"/>
		<path id="XMLID_132_" class="st83" d="M317.6,384.5c-1.2,1.1-2.6,0.7-3.9,0.5C315,384.6,316.3,384.8,317.6,384.5z"/>
		<path id="XMLID_131_" class="st84" d="M335.4,401.9c0,0.1,0,0.1,0,0.2c-1.7-0.4-3.5-0.8-5.2-1.2c0-0.2,0-0.3,0.2-0.2
			C332.1,401,333.8,401.2,335.4,401.9z"/>
		<path id="XMLID_130_" class="st85" d="M277.7,344.6c-0.3-0.2-0.7-0.4-0.7-0.9c0.6-0.5,0-0.5-0.3-0.6c-0.3-0.1-0.3-0.2-0.1-0.5
			c0.2-0.3,0.4-0.2,0.5,0.1c0.1,0.3,0.8,0.3,0.5,0.9c-0.1,0.2,0,0.4,0.3,0.3c0.4-0.2,0.6,0,0.6,0.3c0,0.7-0.6-0.3-0.7,0.2
			C277.8,344.5,277.7,344.6,277.7,344.6z"/>
		<path id="XMLID_129_" class="st64" d="M335.8,353.5c0.2,1.3-0.3,1.9-2,2.7C334.5,355.2,335.1,354.4,335.8,353.5z"/>
		<path id="XMLID_128_" class="st86" d="M311.5,415.7c0.2,0.7-0.2,1-0.7,1.2c-0.4-0.3,0.5-0.6,0-0.7c-0.9-0.2-0.1,0.8-0.6,1
			c-0.4-1-0.3-1.3,1.1-1.8C311.5,415.5,311.6,415.6,311.5,415.7z"/>
		<path id="XMLID_127_" class="st72" d="M273.3,343.3c-0.1,0.1-0.1,0.2-0.2,0.2c-1.1-1.3-1.7-2.8-2-4.4
			C271.7,340.6,272.4,342,273.3,343.3z"/>
		<path id="XMLID_126_" class="st87" d="M337.3,397.1c0.9-0.9,1.3-2.2,2.2-3.4C339.4,395.4,338.4,396.3,337.3,397.1z"/>
		<path id="XMLID_125_" class="st88" d="M339.4,395.5c-0.3,1.7-1.4,2.9-3,3.7C337.7,398.1,338.6,396.9,339.4,395.5z"/>
		<path id="XMLID_124_" class="st89" d="M306.6,384.1c-0.1,1.2-0.4,2.1-0.9,3C305.4,386,305.6,385.3,306.6,384.1z"/>
		<path id="XMLID_123_" class="st90" d="M297.8,369.4c-0.1-0.3-0.4-0.5-0.3-0.8c1.4,0.1,2.8-0.2,4-1c0,0,0.1,0.1,0.1,0.1
			c0,0.3-0.2,0.5-0.5,0.7c-0.2,0.2-0.5,0.4-0.8,0.4C299.5,369.1,298.6,369,297.8,369.4z"/>
		<path id="XMLID_122_" class="st91" d="M332.7,382.3c0.1,0.3,0.3,0.7-0.3,0.6c-0.3,0-1.1-0.1-0.8-0.6c0.2-0.4-0.4-0.7,0.1-0.8
			c0.4-0.2,0.7,0.2,1,0.4C332.8,382,332.8,382.2,332.7,382.3z"/>
		<path id="XMLID_121_" class="st54" d="M287,368.1c0.2,1.2,0.5,2.5,0.4,3.8c-0.4-0.9-0.6-1.8-0.6-2.8
			C286.7,368.7,286.4,368.3,287,368.1z"/>
		<path id="XMLID_120_" class="st42" d="M280.8,421.3c-0.5-1.2-1.1-2.3-1.8-3.4C280.2,418.8,280.8,419.9,280.8,421.3z"/>
		<path id="XMLID_119_" class="st92" d="M270.6,352.3c-0.1,0-0.2-0.1-0.3-0.1c-0.1-0.2-0.5-0.3-0.6-0.9c0.9,0.7,1.9,0.7,3.1,0.9
			C271.9,352.8,271.3,352.5,270.6,352.3z"/>
		<path id="XMLID_118_" class="st93" d="M318.2,345.1c-0.1,0.1-0.7-0.7-0.7,0.2c0,0.2-0.4,0.3-0.7,0.1c-0.8-0.4,0.2-0.3,0.2-0.5
			c-0.1-0.4,0.3-0.6,0.6-0.7c0.2-0.1,0.1-0.5,0.5-0.3c0.2,0.2,0,0.3-0.1,0.5C317.6,344.9,318.5,344.4,318.2,345.1z"/>
		<path id="XMLID_117_" class="st94" d="M267.3,376.8c0.9-0.5,1.9-0.7,2.8,0C269.2,377,268.2,376.5,267.3,376.8z"/>
		<path id="XMLID_116_" class="st73" d="M274.5,348.5c0.9,0.3,1.8,0.6,2.6,1.2c-1,0-1.9-0.3-2.6-1
			C274.4,348.7,274.4,348.6,274.5,348.5C274.5,348.5,274.5,348.5,274.5,348.5z"/>
		<path id="XMLID_115_" class="st95" d="M299.5,408.2c0.5-0.4,0.9,0.1,1.4,0.1c0.1,0.1,0.2,0.3,0.2,0.4c0,0.2,0.6,0.2,0.3,0.6
			c-0.3,0.3-0.5,0.1-0.6-0.2c-0.3-0.6-0.7-0.5-1-0.1C299.3,408.8,300.1,408.4,299.5,408.2z"/>
		<path id="XMLID_114_" class="st96" d="M339.1,400.1c0.3-0.2,0.6-0.4,0.8-0.6c0.3,0,0.5,0,0.2,0.3c-0.8,0.6-1.5,1.2-2.5,1.5
			C337.7,400.2,338.5,400.3,339.1,400.1z"/>
		<path id="XMLID_113_" class="st97" d="M272.2,381.1c-0.4,0-0.7-0.3-1,0.1c-0.3,0.3-0.5,0.1-0.6-0.1c-0.1-0.2,0-0.4,0.1-0.6
			c0.2-0.5,0.3,0,0.5,0C271.5,380.5,272,380.4,272.2,381.1z"/>
		<path id="XMLID_112_" class="st98" d="M334.5,383.7c-0.4,0-0.8,0-1.2,0c-0.1-0.4,0.3-0.7,0-1.1c0.1-0.3,0.3-0.4,0.6-0.4
			c0.4,0.2,1-0.2,1.3,0.3c-0.3,0-0.5,0-0.8,0.1c-0.4,0.3,0.1,0.6,0.1,1C334.5,383.6,334.5,383.6,334.5,383.7z"/>
		<path id="XMLID_111_" class="st99" d="M275.9,333.2c0.4,0.6,1.4,0.6,1.1,1.6c-0.1,0.2-0.1,0.4-0.3,0.3c-0.2,0-0.3-0.2-0.5-0.3
			C276.8,334.2,275.8,333.9,275.9,333.2z"/>
		<path id="XMLID_110_" class="st100" d="M268.8,398.9c-0.1-0.1-0.2-0.2-0.2-0.2c1.1-0.4,2.2-0.5,3.4-0.3
			C270.9,398.6,269.9,398.7,268.8,398.9z"/>
		<path id="XMLID_109_" class="st41" d="M335.2,382.5c-0.4-0.3-0.9-0.1-1.4-0.2c-0.1-0.1-0.1-0.2,0-0.4c0.4,0.3,0.9,0.2,1.4,0.2
			c0.7,0,1.1,0.2,1.6,0.8C336.2,382.8,335.7,382.7,335.2,382.5z"/>
		<path id="XMLID_108_" class="st101" d="M339.5,370.6c0.2-0.8,0.4-1.7,0.6-2.5c0.7,0.1,0.5,0.5,0.3,0.9c-0.4,0.4,0,1.2-0.7,1.6
			l-0.1,0L339.5,370.6z"/>
		<path id="XMLID_107_" class="st102" d="M330.4,400.7c-0.1,0.1-0.2,0.1-0.2,0.2c-1-0.2-2.1-0.3-3.1-0.5
			C328.3,400.2,329.4,400.4,330.4,400.7z"/>
		<path id="XMLID_106_" class="st103" d="M308.4,400c0.3,0,0.6,0.2,0.7,0.5c0,0.3-0.3,0.6-0.6,0.6c-0.4,0-0.6-0.4-0.6-0.7
			C307.8,400.1,308.2,400.1,308.4,400z"/>
		<path id="XMLID_105_" class="st104" d="M342.9,410.8c0.1-0.1,0.1-0.1,0.2-0.2c0.8,0.6,1.6,1.2,2.5,1.8c-0.1,0.1-0.1,0.2-0.2,0.2
			C344.6,412,343.7,411.4,342.9,410.8z"/>
		<path id="XMLID_104_" class="st105" d="M311.5,415.7c-0.1-0.1-0.2-0.1-0.2-0.2c0.2-0.2-0.4-1.1,0.6-0.6c0.3,0.2,0.4,0.3,0.6,0.6
			C312.2,415.7,312,416.2,311.5,415.7z"/>
		<path id="XMLID_103_" class="st106" d="M323.9,380.4c0.4-0.9,1-1.6,2.1-2.1C325.4,379.4,324.6,379.9,323.9,380.4z"/>
		<path id="XMLID_102_" class="st38" d="M300.6,371.9c0-0.1,0-0.1,0-0.2c0.5-1,0.9-1.2,2-1l0.1,0.1
			C302.1,371.4,301.5,371.8,300.6,371.9z"/>
		<path id="XMLID_101_" class="st107" d="M282.5,420.1c-0.1,0.1-0.1,0.1-0.2,0.2c-0.8-0.5-1.6-1.2-2.1-2.1
			C280.9,418.8,281.7,419.5,282.5,420.1z"/>
		<path id="XMLID_100_" class="st108" d="M276.3,398.9c-0.2,0.1-0.6-0.2-0.7,0.2c-0.4,0-0.8-0.3-1.3,0c0.2-0.7,0.8-0.7,1-1.4
			C275.1,398.9,276.1,398.5,276.3,398.9z"/>
		<path id="XMLID_99_" class="st109" d="M285.7,358.8c-0.2-0.5,0.1-1.1-0.2-1.6c-0.1-0.5,0-1.1,0.3-1.5
			C285.9,356.7,285.9,357.7,285.7,358.8z"/>
		<path id="XMLID_98_" class="st110" d="M297.8,428.7c-0.9-0.4-1.8-0.9-2.3-1.8c0.9,0.6,1.8,1.2,2.7,1.7
			C298.1,428.7,297.9,428.7,297.8,428.7z"/>
		<path id="XMLID_97_" class="st111" d="M289.4,404.5c0.1-0.4,0.3-0.5,0.5-0.6c0.4-0.1,0.6,0.1,0.7,0.4c0.1,0.3-0.2,0.5-0.4,0.4
			C289.9,404.8,289.7,404.6,289.4,404.5z"/>
		<path id="XMLID_96_" class="st112" d="M325.6,375.1c-0.4-0.1-0.7,0.6-1.1,0.2c-0.1-0.1-0.1-0.3-0.1-0.4c0.3-0.4,0.8-0.1,1.2-0.2
			c0.1,0,0.3,0,0.5,0C325.9,374.8,325.8,374.9,325.6,375.1z"/>
		<path id="XMLID_95_" class="st113" d="M302.6,366.4c0.2,0.1,0.3,0.2,0.3,0.5c-0.1,0.9-0.6,1.1-1.4,0.7l0,0
			C301.9,367.2,302.2,366.8,302.6,366.4z"/>
		<path id="XMLID_94_" class="st68" d="M268,356.5c-0.4,0.8-1.1,1.3-1.9,1.5c0.7-0.5,1.3-1,1.8-1.6C267.9,356.4,268,356.5,268,356.5
			z"/>
		<path id="XMLID_93_" class="st114" d="M302.2,396.9c-0.1,0-0.1,0-0.2,0c0.1-0.5-0.3-0.6-0.6-0.6c-0.2,0-0.5,0-0.4-0.3
			c0.1-0.2,0.3-0.4,0.5-0.5c0.3-0.1,0.2,0.2,0.3,0.3c0.2,0.2,0.5,0.5,0.7,0.7C302.4,396.6,302.3,396.8,302.2,396.9z"/>
		<path id="XMLID_92_" class="st115" d="M316.3,342.2c0.1,0.2,0.7,0.3,0.1,0.6c-0.6-0.1-0.9,0.6-1.7,0.6
			C315.2,342.8,315.8,342.5,316.3,342.2z"/>
		<path id="XMLID_91_" class="st116" d="M274.5,348.5c0,0.1,0,0.2,0,0.2c-0.9-0.1-0.9-1.1-1.4-1.4
			C273.9,347.4,274.1,348,274.5,348.5z"/>
		<path id="XMLID_90_" class="st117" d="M323.6,342.6c0.1,0.1,0.1,0.2,0.2,0.2c-0.4,0.6-0.9,1.1-1.5,1.5c0-0.1-0.1-0.1-0.2-0.2
			C322.6,343.6,323.1,343.1,323.6,342.6z"/>
		<path id="XMLID_89_" class="st118" d="M276.2,333.4c0.6-0.7,0.4-1.1-0.4-1.4c0.8-0.1,1.2-0.1,1.3,0.5
			C277.2,333,276.9,333.1,276.2,333.4z"/>
		<path id="XMLID_88_" class="st119" d="M287,368.1c-0.3,0.3-0.1,0.6-0.2,0.9c-0.2-0.8-0.4-1.6,0-2.7
			C286.8,367.1,286.9,367.6,287,368.1z"/>
		<path id="XMLID_87_" class="st120" d="M287.7,401.7c0.1-0.6,0.4-0.9,0.9-0.9c0.2,0,0.3,0.3,0.3,0.4
			C288.6,401.8,288,401.2,287.7,401.7z"/>
		<path id="XMLID_86_" class="st121" d="M328.9,403.2c-0.1,0.1-0.2,0.1-0.3,0.2c-0.8-0.2-1.5-0.4-2.3-0.7c-0.1-0.2,0-0.3,0.2-0.2
			C327.3,402.7,328.1,402.8,328.9,403.2z"/>
		<path id="XMLID_85_" class="st122" d="M268.1,352.1c-0.1,0.2-0.3,0.4-0.5,0.4c-0.4,0-0.4-0.4-0.5-0.6c0-0.3,0.2-0.2,0.4-0.2
			C267.8,351.7,268,351.8,268.1,352.1z"/>
		<path id="XMLID_84_" class="st123" d="M326.6,402.6c-0.1,0.1-0.1,0.1-0.2,0.2c-0.7-0.2-1.5-0.3-2.2-0.5
			C325,402.1,325.8,402.3,326.6,402.6z"/>
		<path id="XMLID_83_" class="st124" d="M339.7,370.5c0.4-0.5,0.4-1.2,0.5-1.8c0,0,0.1,0,0.1,0c0.1,0.1,0.1,0.2,0.2,0.2
			c-0.1,0.8-0.2,1.5-0.6,2.2C339.6,371,339.7,370.8,339.7,370.5z"/>
		<path id="XMLID_82_" class="st125" d="M330.2,331.7c0-0.1,0-0.2,0-0.4c0.4-0.6,0.9-1.1,1.6-1.4
			C331.2,330.5,330.7,331.1,330.2,331.7z"/>
		<path id="XMLID_81_" class="st126" d="M275.6,342.8c-0.1,0.1-0.2,0.2-0.3,0.3c-0.4-0.6-0.8-1.1-1.2-1.7
			C274.8,341.8,275.4,342.2,275.6,342.8z"/>
		<path id="XMLID_80_" class="st127" d="M315.9,362.8c0.1,0.3,0.4,0.5,0.7,0.4l0,0c0,0.2,0,0.3,0,0.5l0,0c-0.3,0.2-0.6,0.3-0.9-0.1
			C315.4,363.3,315.6,363.1,315.9,362.8L315.9,362.8z"/>
		<path id="XMLID_79_" class="st128" d="M327.6,351.3c-0.3,0-0.5,0-1,0c0.5-0.3,0.6-0.8,1-0.9C328,350.7,327.9,351,327.6,351.3z"/>
		<path id="XMLID_78_" class="st129" d="M318.8,341.7c0.1-0.1,0.2-0.3,0.3-0.4c0,0,0,0.1,0,0.1c0.1,0.5,1.2,0.7,0.7,1.3
			C319.6,342.9,319.3,341.9,318.8,341.7z"/>
		<path id="XMLID_77_" class="st130" d="M312,399.6c0.3,0.2,0.8-0.2,1,0.3c0,0.1-0.2,0.4-0.3,0.4C312.3,400.4,312.1,400,312,399.6z"
			/>
		<path id="XMLID_76_" class="st131" d="M282.1,398.6c0.5-0.8,0.9-0.6,1.3-0.3c0.1,0.1,0.2,0.2,0,0.4
			C283,399,282.7,398.4,282.1,398.6z"/>
		<path id="XMLID_75_" class="st132" d="M321.3,339.4c-0.5-0.6-0.4,1.1-0.8,0.2c-0.1-0.3,0.3-0.6,0.7-0.6c0.4-0.1,0.4,0.3,0.4,0.3
			C321.6,339.6,321.5,339.7,321.3,339.4z"/>
		<path id="XMLID_74_" class="st133" d="M269.4,379.1c0.1-0.2,0.3-0.5,0.4-0.4c0.3,0.1,0.6,0.3,0.6,0.8c0,0.1-0.1,0.2-0.1,0.3
			C270.2,379.1,269.5,379.6,269.4,379.1z"/>
		<path id="XMLID_73_" class="st134" d="M266.8,353.7c-0.3,0-0.6,0.1-0.7-0.4c0-0.2-0.3-0.5,0.1-0.7c0.4-0.2,0.4,0.2,0.4,0.4
			C266.7,353.3,266.7,353.5,266.8,353.7L266.8,353.7z"/>
		<path id="XMLID_72_" class="st135" d="M284,367.1c-0.1-0.1-0.3-0.1-0.4-0.2c0-0.7,0.8-0.7,1.1-1.2C285,366.5,284,366.6,284,367.1z
			"/>
		<path id="XMLID_71_" class="st136" d="M299.8,396.9c-0.5-0.4-0.9,0.4-1.4,0c0.3-0.3,0.7-0.6,1-0.9
			C299.5,396.3,299.7,396.6,299.8,396.9z"/>
		<path id="XMLID_70_" class="st137" d="M314.7,403.2c-0.5,0.1-1,0.3-1.3-0.2c-0.1-0.2,0-0.3,0.2-0.3
			C314.2,402.4,314.4,402.8,314.7,403.2z"/>
		<path id="XMLID_69_" class="st138" d="M334.5,383.6c-0.8,0.1-0.1-0.7-0.6-0.9c0.2,0,0.3-0.1,0.5-0.1c0,0.1,0,0.3,0.1,0.3
			C335.3,383.2,334.7,383.4,334.5,383.6z"/>
		<path id="XMLID_68_" class="st139" d="M333.8,382c0,0.1,0,0.2,0,0.4c-0.2,0.1-0.3,0.2-0.5,0.3c-0.2-0.2-0.4-0.3-0.7-0.3
			c0-0.1,0-0.3,0-0.4C333.1,381.9,333.4,381.9,333.8,382z"/>
		<path id="XMLID_67_" class="st140" d="M326.3,351c-0.3-0.1-0.8,0.2-1-0.3C325.6,351.1,326.3,349.4,326.3,351L326.3,351z"/>
		<path id="XMLID_66_" class="st141" d="M315.1,400c0.4-0.3,0.6-0.7,1.1-0.3c0.1,0.1,0.2,0.2,0,0.4
			C315.9,400.4,315.5,400.3,315.1,400z"/>
		<path id="XMLID_65_" class="st99" d="M273.9,331c0.3,0,0.3,0,0.3,0c0.4,0.4,0.7,0.7,1.1,1.1c0,0-0.1,0.2-0.1,0.2
			C274.6,332.1,274.4,331.6,273.9,331z"/>
		<path id="XMLID_64_" class="st142" d="M312.9,414.6c-0.3-0.1-0.6,0.1-0.9-0.3c0.4-0.1,0.8-0.4,1.2-0.1
			C313.1,414.4,313,414.5,312.9,414.6L312.9,414.6z"/>
		<path id="XMLID_63_" class="st143" d="M341.3,397.9c0-0.7,0.7-1,1-1.5c0.1,0,0.2,0,0.4,0C342.2,397,341.8,397.4,341.3,397.9z"/>
		<path id="XMLID_62_" class="st144" d="M325.6,344.7c-0.1-0.1-0.2-0.2-0.2-0.2c0.3-0.4,0.7-0.8,1-1.1
			C326.4,343.9,326.1,344.3,325.6,344.7z"/>
		<path id="XMLID_61_" class="st145" d="M279.5,384.7c-0.5-0.2-1.1-0.5-1.6-0.7c0.1-0.1,0.2-0.1,0.2-0.2c0.5,0.2,0.9,0.4,1.4,0.6
			C279.5,384.5,279.5,384.6,279.5,384.7z"/>
		<path id="XMLID_60_" class="st146" d="M310.6,403.4c0.7-0.3,1,0,1.4,0.6C311.4,404,311,403.8,310.6,403.4z"/>
		<path id="XMLID_59_" class="st147" d="M292.8,401.7c0.4-0.4,0.5-0.9,1-0.7c0.1,0,0.3,0.3,0.3,0.3
			C293.8,401.8,293.4,401.7,292.8,401.7z"/>
		<path id="XMLID_58_" class="st105" d="M312.9,414.6c0.4,0,0.6,0.2,1.1,0.5c-0.6,0.1-1,0-1.3-0.2
			C312.7,414.8,312.8,414.7,312.9,414.6L312.9,414.6z"/>
		<path id="XMLID_57_" class="st148" d="M266.8,353.8c0.4,0,0.1-0.8,0.6-0.5c0.2,0.1,0.4,0.3,0.2,0.4
			C267.4,353.8,267.1,354.2,266.8,353.8L266.8,353.8z"/>
		<path id="XMLID_56_" class="st149" d="M339.2,370.5c0.1,0.1,0.2,0.2,0.3,0.2c0,0.4-0.2,0.8-0.5,1.2
			C338.9,371.3,339,370.9,339.2,370.5z"/>
		<path id="XMLID_55_" class="st150" d="M272,329.4c0.6,0.1,1,0.4,1.2,1C272.8,330,272.4,329.7,272,329.4z"/>
		<path id="XMLID_54_" class="st127" d="M315.9,362.8c0-0.5,0.7-0.5,0.8-1.1C316.9,362.6,316.4,362.7,315.9,362.8L315.9,362.8z"/>
		<path id="XMLID_53_" class="st151" d="M321.1,337.6c0.1-0.2,0.3-0.5,0.4-0.7c0,0.3,0.7,0.3,0.3,0.8
			C321.5,338,321.3,337.8,321.1,337.6z"/>
		<path id="XMLID_52_" class="st152" d="M263.4,404.7c0.1,0.1,0.2,0.1,0.3,0.2c-3.3,1.9-6.6,3.7-9.8,5.9c-0.2,0.1-0.3,0-0.2-0.2
			C256.7,408.4,259.9,406.3,263.4,404.7z"/>
		<path id="XMLID_51_" class="st153" d="M261.4,400.8c0.1,0.1,0.3,0.3,0.4,0.4c-3,1-5.7,2.6-8.5,4.2c-0.4,0.2-0.7,0.4-1.1,0.6
			c-0.2,0.1-0.3,0-0.2-0.2c2.7-1.8,5.5-3.4,8.6-4.6C260.9,401.1,261.2,401.1,261.4,400.8z"/>
		<path id="XMLID_50_" class="st154" d="M253.6,410.6c0.1,0.1,0.1,0.1,0.2,0.2c-0.8,0.6-1.7,1.2-2.5,1.8
			C251.9,411.6,252.8,411.1,253.6,410.6z"/>
		<path id="XMLID_49_" class="st155" d="M252,405.8c0.1,0.1,0.1,0.1,0.2,0.2c-0.7,0.4-1.3,0.9-2,1.3
			C250.7,406.5,251.4,406.2,252,405.8z"/>
		<path id="XMLID_48_" class="st115" d="M353.6,410.3c0.1-0.1,0.2-0.1,0.2-0.2c0.9,0.5,1.7,1.1,2.6,1.6c-0.1,0.1-0.1,0.2-0.2,0.3
			C355.3,411.4,354.4,410.9,353.6,410.3z"/>
		<path id="XMLID_47_" class="st156" d="M273,376.8c0-0.4,0-0.8,0-1.3c-1.7,0-3.6,0.4-5-1.2c2.9,1.4,5.4,0.4,8.2-1
			c-2-0.1-3.9,0.1-5.6-1c2.1,0.6,4.3,0.2,6.4,0c1.9-0.2,3.7,0,5.5,0.5c2,0.5,3.6,1.6,4.6,3.4c1.3,2.1,2.6,4.2,2.9,6.7
			c0.1,0.6,0.1,1.1-0.4,1.4c-0.5,0.3-1,0.1-1.4-0.2c-1-0.8-2-0.7-3.1-0.4c-4.2,1.2-8.5-0.4-11.1-4.1c-0.7-1.1-1.6-2-2.7-3
			c0.9,0,1.3,0.7,1.9,1c0.2-0.3,0.1-0.5,0.1-0.8c0-0.3,0-0.6,0.1-1C273.3,376.4,273.5,376.9,273,376.8z"/>
		<path id="XMLID_46_" class="st157" d="M273,376.8c0.2-0.4,0.4-0.9,0.5-1.3c0.1,0,0.1,0,0.2,0c-0.1,0.5-0.2,1-0.3,1.6
			C273.2,377.1,273,377.1,273,376.8z"/>
		<path id="XMLID_45_" class="st156" d="M307.9,382.8c0-0.3,0-0.6,0-0.9c-0.2,0.1-0.2,0.5-0.5,0.3c0.9-4.5,4.7-9.3,9.1-10
			c1.5-0.2,2.9-0.2,4.4,0.3c0.7,0.2,1.4,0.4,2,0.7c2.1,0.7,4.1,0.7,6-0.4c-1.4,1.7-3.5,1.5-5.5,1.6c0.1,0.4,0.2,0.7,0.3,1.2
			c0-0.2,0.1-0.4,0.1-0.5c0.6,0.2,0.3,0.8,0.5,1.2c0.5,0,0.6-0.7,1.5-0.6c-1.8,1.5-2.5,3.6-4,5.2c-2.5,2.5-5.4,3.7-8.9,3
			c-1.2-0.2-2.4-0.3-3.4,0.7c-0.4,0.4-0.9,0.5-1.4,0.2c-0.1-0.4-0.1-0.8,0.3-1c0.8-0.1,1.4-0.6,2.2-0.8c0.7-0.1,1.3-0.1,1.8,0.1
			c-0.7-0.2-1.5-0.6-2.1-1.5c-0.1-0.1-0.1-0.2-0.2-0.2c-0.3-0.1-0.1-0.8-0.7-0.5c-0.5,0.9-0.7,1.9-1.3,2.6
			C307.8,383.3,307.8,383.1,307.9,382.8z"/>
		<path id="XMLID_44_" class="st158" d="M307.9,382.8c0.1,0.2,0.1,0.5,0.5,0.5c0.4-0.1,0.4,0.2,0.3,0.4c-0.3,0.2-0.4,0.6-0.5,0.9
			C307.5,384.1,307.6,383.4,307.9,382.8z"/>
		<path id="XMLID_43_" class="st159" d="M323,418.2c0.6-0.6,1-1.1,1.5-1.7C324.3,417.4,323.7,417.7,323,418.2z"/>
		<path id="XMLID_42_" class="st160" d="M301.5,367.6c0.6,0,1.1-0.1,1.4-0.7c0.3,0.8,1.1,0.2,1.7,0.6c-0.8,0.1-1,0.7-1.1,1.2
			c-0.4,0-0.4,0.6-0.9,0.5c-0.4-0.1,0.1-0.9-0.6-0.8c-0.3,0.4-0.1,0.6,0.3,0.6c0.1,0,0.2,0.1,0.2,0.1c-0.2,0.2,0.4,0.6-0.4,0.7
			c-0.4,0,0.3,0.5,0.3,0.9c-0.8,0-1.5,0.4-2,1c-0.6,0.2-1.1,0.2-1.4-0.5c-0.4-0.5,0.2-0.9,0.1-1.4c-0.3,0.2-0.9,0.1-0.4,0.8
			c0.1,0.2,0.2,0.4,0.3,0.6c0,0.6-0.1,0.6-0.7,0.7c-1.2,0.1-2.3-0.3-3.3-0.7c0.2-0.4,0.5-0.7,0.5-1.2c0.4,0.6,1.4-0.1,1.8,0.6
			c0,0,0.2-0.1,0.3-0.1c-0.4-0.6,0.9-0.7,0.4-1.3c0,0-0.2,0-0.3,0.1c0-0.1,0.1-0.4,0.1-0.4c0.8,0,1.6-0.5,2.5-0.2
			c0.4,0.4,0.3,0.8,0,1.2c0.4-0.5,0.4-1.1,0.7-1.6C301.2,368,301.4,367.8,301.5,367.6z"/>
		<path id="XMLID_41_" class="st161" d="M301.1,368.3c0.3,1-0.6,1.5-0.8,2.2c-0.2-0.6,0.3-1.2,0.2-1.8
			C300.7,368.7,300.7,368.1,301.1,368.3z"/>
		<path id="XMLID_40_" class="st162" d="M277.7,378.5c0.3,1.1,0.8,2.2,1.4,3.1c0.5,0.8,1.1,0.8,1.8,0.2c0.5-0.6,1-1.2,1.6-1.8
			c1.1-0.6,2.2-1.3,3.5-0.8c0.3,0.1,0.7,0.1,1.1,0.3c-0.7,2.9-3.4,4.4-6.6,3.8c-2.1-0.4-3.9-1.5-5.3-3.2c-0.7-0.9-0.9-1.9-0.8-3.1
			c0.4-0.3,0.7-0.1,1,0.1C276.1,377.7,276.9,378.1,277.7,378.5z"/>
		<path id="XMLID_39_" class="st163" d="M282.8,378.5c-0.8,0-1.4-0.7-1.5-1.6c0-0.9,0.6-1.6,1.5-1.6c1,0,1.4,0.6,1.4,1.5
			C284.3,377.7,283.6,378.5,282.8,378.5z"/>
		<path id="XMLID_38_" class="st164" d="M287,379.6c-0.7,0.4-1.3-0.4-1.9-0.3c-0.9,0.1-1.8,0.5-2.7,0.7c0.1-1,1-1.2,1.6-1.6
			c0.7-0.9,1.7-0.1,2.5-0.5C286.9,378.5,287.5,378.9,287,379.6z"/>
		<path id="XMLID_37_" class="st165" d="M277.7,378.5c-1,0-1.6-0.6-2.4-1c-0.3-0.1-0.5-0.4-0.9-0.3c0-0.2,0-0.3,0-0.5
			c0.2-0.7,0.9-1.2,1.4-0.9c0.7,0.4,1.5,0.8,1.8,1.8C277.6,377.9,277.6,378.2,277.7,378.5z"/>
		<path id="XMLID_36_" class="st166" d="M277.5,377.6c-0.4-0.7-1.2-1.1-1.8-1.5c-0.5-0.3-1.1,0-1.4,0.6c-0.2-1.2,0.5-1.6,1.5-1.7
			c0.8,0.3,1.6,0.5,1.9,1.4C277.6,376.8,277.6,377.2,277.5,377.6z"/>
		<path id="XMLID_35_" class="st167" d="M286.6,378c-0.5,0.3-0.9,0.9-1.5,0.2c-0.2-0.2-0.4-0.1-0.4,0.2c-0.1,0.5-0.4,0.1-0.5,0.1
			c0.6-0.5,0.7-1.2,0.7-2.1C285.6,376.9,286.1,377.4,286.6,378z"/>
		<path id="XMLID_34_" class="st168" d="M288.1,383.5c-0.5-0.2-1-0.3-1.5-0.4c-0.3,0-0.4-0.1-0.1-0.4c0.8-0.2,1-0.9,1.5-1.4
			c0.2-0.2,0.2-0.6,0.6-0.3c0.2,0.3,0.3,0.6,0.5,0.9c0.1,0.5-0.6,0.8-0.2,1.3C288.9,383.4,288.4,383.5,288.1,383.5z"/>
		<path id="XMLID_33_" class="st30" d="M288.1,383.5c-0.3-0.2,1.1-0.1,0.1-0.5c-0.1,0-0.3-0.3-0.1-0.3c0.7,0.1,0.4-0.8,0.9-0.8
			c0.1,0.2,0.2,0.3,0.3,0.5c0.3,0.6,0.8,1.3,0.2,1.7C289.1,384.5,288.6,383.8,288.1,383.5z"/>
		<path id="XMLID_32_" class="st169" d="M288.6,381c-0.4,0.5-0.9,1-1.3,1.5c-0.2,0.3-0.5,0.3-0.8,0.2c0.8-0.7,0.5-2,1.4-2.6
			C288.1,380.3,288.4,380.6,288.6,381z"/>
		<path id="XMLID_31_" class="st170" d="M277.7,376.5c-0.6-0.5-1.2-0.9-1.9-1.4c0.7-0.3,1.5-0.1,2.2-0.3c0.5-0.1,0.4,0.4,0.3,0.4
			C277.5,375.4,278.1,376.2,277.7,376.5z"/>
		<path id="XMLID_30_" class="st171" d="M322.9,376.2c0.2,1.4-0.2,2.7-1.2,3.7c-1.9,2-4.2,3.3-7.1,3.1c-2.3-0.2-3.9-1.6-4.3-3.8
			c0.4-0.5,0.6-0.6,1.9-0.3c0.2,0.5-0.2,0.6-0.7,0.6c1,0.1,1.7-0.8,2.6-0.4c0.6,0.7,1.3,1.3,2.1,1.8c1.2,0.8,1.6,0.7,2.1-0.6
			c0.1-0.3,0.3-0.7,0.4-1c0.2-1,1.1-1.7,1.2-2.7c0,0,0,0,0.1-0.1c0.1-0.1,0.3-0.2,0.4-0.2C321.4,376.7,322,375.4,322.9,376.2z"/>
		<path id="XMLID_29_" class="st172" d="M322.9,376.2c-0.5,0.2-1.4-0.5-1.5,0.6c0,0.1-0.2,0.3-0.3,0c-0.2-0.5-0.6-0.3-0.8-0.1
			c-0.6,0.7,0.4,0,0.3,0.3c0,0.1,0,0.3-0.1,0.3c-0.8,0.5-0.9,1.5-1.6,2c0.1-1,0.1-1.9,0.9-2.8c0.7-0.7,0.5-1.7,0.1-2.6
			C323,374.3,322.6,373.9,322.9,376.2z"/>
		<path id="XMLID_28_" class="st13" d="M319.6,375.7c-0.1,0.8-0.6,1.3-1.4,1.4c-0.8,0-1.6-0.9-1.6-1.8c0-0.8,0.9-1.5,1.7-1.4
			C318.9,373.9,319.6,374.8,319.6,375.7z"/>
		<path id="XMLID_27_" class="st173" d="M308.6,383.7c0-0.2-0.1-0.4-0.3-0.4c-0.2-1.1,0.8-1.8,1-2.7c0.5-0.1,0.7,0.5,1.1,0.7l0,0
			c-0.2,0.7,0.5,1.2,0.3,1.8C310,383.2,309.4,384,308.6,383.7z"/>
		<path id="XMLID_26_" class="st144" d="M312.2,379c-0.6,0.4-1.3-0.2-1.8,0.2c-0.3-0.9,0.6-1.2,1-1.8c0.7,0.1,1.3,0.2,2,0.2
			c0.1,0.2,0.1,0.5,0.2,0.7C313.4,379,312.7,378.7,312.2,379z"/>
		<path id="XMLID_25_" class="st174" d="M313.4,377.6c-0.7,0.4-1.4,0.4-2-0.2c0.3-0.9,1.1-1.3,1.8-2
			C313.5,376.2,313.3,376.9,313.4,377.6z"/>
		<path id="XMLID_24_" class="st175" d="M312.2,379c0.2-0.6,0.9-0.4,1.3-0.7c0.2,0.3,0.4,0.6,0.6,0.9c-1,0.2-1.9,1-3,0.5
			C311.4,379.2,312.2,379.7,312.2,379z"/>
		<path id="XMLID_23_" class="st176" d="M310.7,383.1c-0.2-0.6-1-1.1-0.3-1.8c0.7,0.8,1.6,1.4,2.5,1.9
			C312.2,383,311.4,383.1,310.7,383.1z"/>
		<path id="XMLID_22_" class="st177" d="M310.4,381.2c-0.4-0.1-0.8-0.3-1.1-0.7c0.1-0.2,0.2-0.5,0.3-0.6c0.4-0.1,0.3,0.3,0.4,0.5
			C310.2,380.8,310.3,381,310.4,381.2z"/>
		<path id="XMLID_21_" class="st178" d="M299.3,371.2c-1.2-1.1-1.2-1.2-0.2-1.8c0.2-0.2,0.4-0.3,0.7-0.1c0.2,0.2,0.2,0.4,0.1,0.7
			C299.7,370.5,299.1,370.7,299.3,371.2L299.3,371.2z"/>
		<path id="XMLID_20_" class="st179" d="M302.4,369.2c-0.2,0.1-0.4,0.2-0.6,0.4c0.1-0.5-0.3-0.9,0-1.3c0,0,0.1,0,0.1,0
			c0,0,0.1,0.1,0.1,0.1C302.4,368.5,302.6,368.8,302.4,369.2z"/>
		<path id="XMLID_19_" class="st180" d="M302.4,369.2c-0.1-0.3-0.3-0.6-0.4-0.9c0.2-0.1,0.5-0.2,0.8-0.3c-0.1,0.4-0.2,0.8-0.1,1.2
			l0,0C302.6,369.2,302.5,369.2,302.4,369.2z"/>
	</g>
</g>
<g id="XMLID_2_">
	<path id="XMLID_16_" class="st181" d="M155.7,456.8c0,0-27-9.7-27,14.3c0,18.5,16.3,19.6,24,14c3.7-2.7,2.7-14,2.7-14h-8.7"/>
	<polygon id="XMLID_15_" class="st182" points="165.2,488 191.9,488 178.5,456.3 	"/>
	<line id="XMLID_14_" class="st182" x1="198.4" y1="455.3" x2="224.4" y2="455.3"/>
	<line id="XMLID_13_" class="st182" x1="211.4" y1="486.5" x2="211.4" y2="454.8"/>
	<line id="XMLID_12_" class="st182" x1="202.4" y1="470.5" x2="220.2" y2="470.5"/>
	<circle id="XMLID_11_" class="st182" cx="248.7" cy="470.7" r="16.9"/>
	<circle id="XMLID_10_" class="st183" cx="248.7" cy="470.7" r="4.3"/>
	<polyline id="XMLID_9_" class="st182" points="319.7,453.8 319.7,486.5 292.2,486.5 292.2,454.8 316.9,484 	"/>
	<polyline id="XMLID_8_" class="st182" points="353.2,454.8 331.2,454.8 331.2,486.5 353.2,486.5 	"/>
	<polyline id="XMLID_7_" class="st182" points="348.2,475.5 331.2,475.5 331.2,465.3 348.2,465.3 	"/>
	<path id="XMLID_6_" class="st181" d="M388.7,456.8c0,0-27-9.7-27,14.3c0,18.5,16.3,19.6,24,14c3.7-2.7,2.7-14,2.7-14h-8.7"/>
	<circle id="XMLID_5_" class="st182" cx="448.7" cy="470.7" r="16.9"/>
	<circle id="XMLID_4_" class="st183" cx="448.7" cy="470.7" r="4.3"/>
	<path id="XMLID_3_" class="st181" d="M398.7,486.5l0.7-15h11.5c0,0,10.7,1,11.2-7s-6.7-9.4-11.7-9.7c-5-0.3-9.5,0-9.5,0l18.7,31.7"
		/>
</g>
</svg>
